%TF.GenerationSoftware,KiCad,Pcbnew,5.1.6*%
%TF.CreationDate,2020-09-16T21:40:07+02:00*%
%TF.ProjectId,HumbuckerAmplifier,48756d62-7563-46b6-9572-416d706c6966,rev?*%
%TF.SameCoordinates,PX6183610PY5204180*%
%TF.FileFunction,Soldermask,Top*%
%TF.FilePolarity,Negative*%
%FSLAX46Y46*%
G04 Gerber Fmt 4.6, Leading zero omitted, Abs format (unit mm)*
G04 Created by KiCad (PCBNEW 5.1.6) date 2020-09-16 21:40:07*
%MOMM*%
%LPD*%
G01*
G04 APERTURE LIST*
%ADD10C,0.010000*%
%ADD11R,1.100000X1.100000*%
%ADD12R,2.100000X3.100000*%
%ADD13R,3.100000X2.100000*%
%ADD14C,6.100000*%
G04 APERTURE END LIST*
D10*
%TO.C,MARK1*%
G36*
X51884364Y20873781D02*
G01*
X51906629Y20845224D01*
X51933419Y20805180D01*
X51959821Y20761109D01*
X51966278Y20749427D01*
X51980577Y20723376D01*
X52004039Y20681072D01*
X52035441Y20624705D01*
X52073557Y20556465D01*
X52117164Y20478540D01*
X52165037Y20393122D01*
X52215952Y20302398D01*
X52268685Y20208560D01*
X52272175Y20202354D01*
X52532568Y19739333D01*
X52967432Y19739333D01*
X53227825Y20202354D01*
X53280634Y20296321D01*
X53331706Y20387315D01*
X53379816Y20473149D01*
X53423740Y20551631D01*
X53462254Y20620573D01*
X53494133Y20677785D01*
X53518153Y20721078D01*
X53533089Y20748261D01*
X53533722Y20749427D01*
X53559171Y20793305D01*
X53586341Y20835179D01*
X53610320Y20867591D01*
X53615635Y20873781D01*
X53652046Y20914083D01*
X53838252Y20914083D01*
X53869671Y20871361D01*
X53880485Y20853228D01*
X53899174Y20817995D01*
X53924702Y20767765D01*
X53956035Y20704637D01*
X53992139Y20630714D01*
X54031979Y20548097D01*
X54074521Y20458887D01*
X54115860Y20371298D01*
X54189077Y20215417D01*
X54254269Y20076790D01*
X54312409Y19953512D01*
X54364472Y19843676D01*
X54411430Y19745377D01*
X54454256Y19656711D01*
X54493923Y19575771D01*
X54531404Y19500653D01*
X54567673Y19429450D01*
X54603702Y19360258D01*
X54640465Y19291170D01*
X54678934Y19220282D01*
X54720083Y19145687D01*
X54764884Y19065482D01*
X54814312Y18977759D01*
X54869338Y18880614D01*
X54930936Y18772141D01*
X54946641Y18744500D01*
X55316458Y18093625D01*
X55319988Y17975648D01*
X55321068Y17920602D01*
X55319906Y17880002D01*
X55315687Y17847174D01*
X55307598Y17815445D01*
X55296433Y17782585D01*
X55250529Y17673811D01*
X55193644Y17574327D01*
X55122274Y17478573D01*
X55063016Y17412048D01*
X55046807Y17397020D01*
X55015108Y17369665D01*
X54968981Y17330849D01*
X54909488Y17281437D01*
X54837690Y17222296D01*
X54754650Y17154292D01*
X54661430Y17078289D01*
X54559092Y16995155D01*
X54448698Y16905754D01*
X54331309Y16810954D01*
X54207989Y16711618D01*
X54079799Y16608614D01*
X53947801Y16502807D01*
X53943340Y16499236D01*
X52887722Y15654167D01*
X52747423Y15654956D01*
X52607125Y15655745D01*
X51566371Y16489685D01*
X51435376Y16594728D01*
X51308222Y16696845D01*
X51185970Y16795174D01*
X51069684Y16888856D01*
X50960424Y16977029D01*
X50859252Y17058834D01*
X50767231Y17133410D01*
X50685422Y17199896D01*
X50614888Y17257432D01*
X50556689Y17305156D01*
X50511889Y17342209D01*
X50481549Y17367730D01*
X50467055Y17380542D01*
X50423600Y17426465D01*
X50376863Y17481961D01*
X50331243Y17541257D01*
X50291140Y17598583D01*
X50260956Y17648165D01*
X50256372Y17656889D01*
X50239128Y17694025D01*
X50219621Y17740631D01*
X50203475Y17782839D01*
X50191277Y17819143D01*
X50183665Y17850651D01*
X50179829Y17884031D01*
X50178958Y17925948D01*
X50179332Y17943601D01*
X50331930Y17943601D01*
X50343404Y17898350D01*
X50365794Y17843575D01*
X50397365Y17782277D01*
X50436383Y17717456D01*
X50481111Y17652114D01*
X50529816Y17589251D01*
X50580762Y17531869D01*
X50602934Y17509620D01*
X50617610Y17496728D01*
X50646416Y17472557D01*
X50687658Y17438472D01*
X50739642Y17395840D01*
X50800675Y17346026D01*
X50869063Y17290397D01*
X50943112Y17230319D01*
X51021128Y17167158D01*
X51101418Y17102280D01*
X51182289Y17037051D01*
X51262045Y16972837D01*
X51338995Y16911004D01*
X51411443Y16852919D01*
X51477696Y16799946D01*
X51536061Y16753454D01*
X51584844Y16714807D01*
X51622351Y16685371D01*
X51646889Y16666514D01*
X51656763Y16659600D01*
X51656824Y16659591D01*
X51654406Y16668985D01*
X51646249Y16694753D01*
X51633536Y16733270D01*
X51617453Y16780906D01*
X51612355Y16795829D01*
X51544510Y16978016D01*
X51463700Y17167960D01*
X51372511Y17360629D01*
X51273527Y17550988D01*
X51169334Y17734005D01*
X51062518Y17904644D01*
X50984346Y18018538D01*
X50942445Y18073097D01*
X50892045Y18132602D01*
X50836856Y18193201D01*
X50780589Y18251042D01*
X50726952Y18302271D01*
X50679656Y18343036D01*
X50652518Y18363142D01*
X50620110Y18384038D01*
X50594381Y18399253D01*
X50580457Y18405775D01*
X50579916Y18405833D01*
X50572635Y18397087D01*
X50556940Y18372936D01*
X50534634Y18336516D01*
X50507518Y18290963D01*
X50477395Y18239412D01*
X50446064Y18184997D01*
X50415329Y18130854D01*
X50386990Y18080119D01*
X50362849Y18035925D01*
X50344708Y18001409D01*
X50334367Y17979705D01*
X50333108Y17976326D01*
X50331930Y17943601D01*
X50179332Y17943601D01*
X50180012Y17975648D01*
X50183542Y18093625D01*
X50454453Y18570427D01*
X50668055Y18570427D01*
X50675732Y18560743D01*
X50698100Y18545911D01*
X50730378Y18529084D01*
X50731555Y18528532D01*
X50760990Y18512916D01*
X50791240Y18492439D01*
X50825465Y18464483D01*
X50866826Y18426429D01*
X50918483Y18375661D01*
X50929667Y18364418D01*
X51026478Y18259980D01*
X51119592Y18145114D01*
X51210481Y18017651D01*
X51300615Y17875420D01*
X51391467Y17716252D01*
X51467804Y17571042D01*
X51553159Y17398096D01*
X51626437Y17238123D01*
X51688974Y17087723D01*
X51742104Y16943493D01*
X51787165Y16802033D01*
X51825273Y16660825D01*
X51839089Y16605819D01*
X51851604Y16557743D01*
X51861761Y16520534D01*
X51868499Y16498130D01*
X51870173Y16493852D01*
X51880102Y16483871D01*
X51904115Y16462841D01*
X51939709Y16432862D01*
X51984379Y16396032D01*
X52035622Y16354449D01*
X52056792Y16337442D01*
X52120916Y16286642D01*
X52170740Y16248570D01*
X52207939Y16222072D01*
X52234191Y16205996D01*
X52251173Y16199188D01*
X52257875Y16199140D01*
X52278840Y16204804D01*
X52312589Y16213806D01*
X52347833Y16223145D01*
X52370326Y16228351D01*
X52395749Y16232475D01*
X52426709Y16235631D01*
X52465813Y16237933D01*
X52515667Y16239494D01*
X52578877Y16240427D01*
X52658052Y16240845D01*
X52755292Y16240863D01*
X52850183Y16240652D01*
X52926657Y16240198D01*
X52987465Y16239346D01*
X53035357Y16237943D01*
X53073081Y16235835D01*
X53103390Y16232866D01*
X53129031Y16228884D01*
X53152756Y16223733D01*
X53177315Y16217260D01*
X53177571Y16217189D01*
X53219691Y16206919D01*
X53252592Y16201642D01*
X53271299Y16202104D01*
X53272821Y16202890D01*
X53310294Y16232006D01*
X53354835Y16267228D01*
X53403630Y16306260D01*
X53453859Y16346803D01*
X53502708Y16386562D01*
X53547358Y16423241D01*
X53584993Y16454541D01*
X53612796Y16478168D01*
X53627950Y16491823D01*
X53629827Y16493957D01*
X53634611Y16508084D01*
X53643306Y16538853D01*
X53654853Y16582329D01*
X53668194Y16634579D01*
X53674727Y16660825D01*
X53676431Y16667136D01*
X53851986Y16667136D01*
X53853317Y16667298D01*
X53863751Y16675595D01*
X53889244Y16695941D01*
X53928327Y16727163D01*
X53979532Y16768085D01*
X54041391Y16817535D01*
X54112433Y16874338D01*
X54191191Y16937320D01*
X54276196Y17005306D01*
X54365979Y17077124D01*
X54369250Y17079741D01*
X54482870Y17170779D01*
X54581212Y17249978D01*
X54665654Y17318560D01*
X54737569Y17377754D01*
X54798333Y17428784D01*
X54849322Y17472876D01*
X54891910Y17511255D01*
X54927474Y17545147D01*
X54957389Y17575779D01*
X54983029Y17604374D01*
X55005770Y17632160D01*
X55026988Y17660362D01*
X55037866Y17675583D01*
X55076905Y17735480D01*
X55110982Y17796373D01*
X55138539Y17854634D01*
X55158022Y17906638D01*
X55167874Y17948758D01*
X55166892Y17976326D01*
X55159083Y17993841D01*
X55142964Y18025054D01*
X55120336Y18066831D01*
X55093000Y18116035D01*
X55062760Y18169533D01*
X55031415Y18224189D01*
X55000767Y18276867D01*
X54972619Y18324433D01*
X54948771Y18363751D01*
X54931026Y18391687D01*
X54921184Y18405105D01*
X54920083Y18405833D01*
X54907603Y18400334D01*
X54882813Y18385843D01*
X54850836Y18365375D01*
X54847481Y18363142D01*
X54806766Y18331903D01*
X54757135Y18287526D01*
X54702300Y18233865D01*
X54645969Y18174772D01*
X54591852Y18114098D01*
X54543658Y18055697D01*
X54515653Y18018538D01*
X54408096Y17859418D01*
X54301350Y17684232D01*
X54197996Y17498007D01*
X54100614Y17305770D01*
X54011787Y17112547D01*
X53934094Y16923366D01*
X53887202Y16794536D01*
X53871175Y16745849D01*
X53859388Y16706226D01*
X53852704Y16678908D01*
X53851986Y16667136D01*
X53676431Y16667136D01*
X53713090Y16802902D01*
X53758196Y16944368D01*
X53811381Y17088626D01*
X53873979Y17239075D01*
X53947327Y17399117D01*
X54032196Y17571042D01*
X54124742Y17745774D01*
X54215359Y17901784D01*
X54305520Y18041241D01*
X54396696Y18166315D01*
X54490357Y18279176D01*
X54570333Y18364418D01*
X54624292Y18417885D01*
X54667357Y18458142D01*
X54702690Y18487806D01*
X54733449Y18509497D01*
X54762795Y18525831D01*
X54768444Y18528532D01*
X54800968Y18545371D01*
X54823738Y18560320D01*
X54831975Y18570223D01*
X54831944Y18570427D01*
X54826363Y18581834D01*
X54811452Y18609564D01*
X54788361Y18651547D01*
X54758243Y18705715D01*
X54722246Y18770001D01*
X54681523Y18842337D01*
X54637223Y18920654D01*
X54628774Y18935552D01*
X54576831Y19027813D01*
X54528780Y19114850D01*
X54483036Y19199770D01*
X54438010Y19285683D01*
X54392115Y19375696D01*
X54343766Y19472917D01*
X54291375Y19580455D01*
X54233355Y19701417D01*
X54175168Y19824000D01*
X54126291Y19927444D01*
X54078680Y20028381D01*
X54033379Y20124588D01*
X53991429Y20213846D01*
X53953872Y20293933D01*
X53921750Y20362628D01*
X53896107Y20417710D01*
X53877983Y20456959D01*
X53872233Y20469583D01*
X53847031Y20524500D01*
X53819922Y20582134D01*
X53794907Y20634037D01*
X53782322Y20659399D01*
X53742592Y20738090D01*
X53723032Y20712316D01*
X53711697Y20694414D01*
X53692877Y20661416D01*
X53668655Y20617108D01*
X53641110Y20565276D01*
X53621609Y20527792D01*
X53593760Y20474351D01*
X53568604Y20427132D01*
X53547994Y20389529D01*
X53533779Y20364934D01*
X53528519Y20357159D01*
X53521083Y20345631D01*
X53504477Y20317607D01*
X53479840Y20275078D01*
X53448309Y20220034D01*
X53411023Y20154467D01*
X53369119Y20080367D01*
X53323737Y19999725D01*
X53300333Y19957996D01*
X53083375Y19570715D01*
X53023037Y19570358D01*
X52976263Y19573156D01*
X52925167Y19580674D01*
X52901751Y19585875D01*
X52841194Y19596402D01*
X52769323Y19600942D01*
X52695128Y19599497D01*
X52627598Y19592066D01*
X52598249Y19585875D01*
X52551234Y19576674D01*
X52500212Y19571127D01*
X52476963Y19570358D01*
X52416625Y19570715D01*
X52199667Y19957996D01*
X52152983Y20041139D01*
X52109214Y20118727D01*
X52069500Y20188767D01*
X52034978Y20249269D01*
X52006786Y20298243D01*
X51986062Y20333696D01*
X51973944Y20353639D01*
X51971481Y20357159D01*
X51963073Y20370176D01*
X51946925Y20398667D01*
X51924886Y20439238D01*
X51898810Y20488497D01*
X51878390Y20527792D01*
X51849777Y20582571D01*
X51823075Y20632392D01*
X51800367Y20673469D01*
X51783732Y20702015D01*
X51776968Y20712316D01*
X51757408Y20738090D01*
X51717678Y20659399D01*
X51695928Y20615194D01*
X51669628Y20560074D01*
X51642782Y20502489D01*
X51627767Y20469583D01*
X51613647Y20438775D01*
X51591504Y20391061D01*
X51562380Y20328661D01*
X51527318Y20253797D01*
X51487359Y20168690D01*
X51443545Y20075561D01*
X51396919Y19976631D01*
X51348524Y19874120D01*
X51324831Y19824000D01*
X51260407Y19688339D01*
X51203035Y19568892D01*
X51151130Y19462553D01*
X51103105Y19366211D01*
X51057372Y19276760D01*
X51012345Y19191092D01*
X50966437Y19106097D01*
X50918062Y19018669D01*
X50871226Y18935552D01*
X50826394Y18856359D01*
X50784926Y18782768D01*
X50747973Y18716846D01*
X50716687Y18660660D01*
X50692217Y18616280D01*
X50675714Y18585773D01*
X50668330Y18571206D01*
X50668055Y18570427D01*
X50454453Y18570427D01*
X50553359Y18744500D01*
X50616661Y18855944D01*
X50673160Y18955607D01*
X50723830Y19045396D01*
X50769642Y19127214D01*
X50811570Y19202969D01*
X50850588Y19274565D01*
X50887668Y19343908D01*
X50923783Y19412903D01*
X50959907Y19483456D01*
X50997012Y19557472D01*
X51036072Y19636856D01*
X51078059Y19723514D01*
X51123947Y19819352D01*
X51174709Y19926275D01*
X51231318Y20046188D01*
X51294747Y20180996D01*
X51365969Y20332606D01*
X51384139Y20371298D01*
X51428272Y20464775D01*
X51470672Y20553625D01*
X51510303Y20635747D01*
X51546132Y20709040D01*
X51577123Y20771402D01*
X51602243Y20820732D01*
X51620457Y20854929D01*
X51630329Y20871361D01*
X51661748Y20914083D01*
X51847953Y20914083D01*
X51884364Y20873781D01*
G37*
X51884364Y20873781D02*
X51906629Y20845224D01*
X51933419Y20805180D01*
X51959821Y20761109D01*
X51966278Y20749427D01*
X51980577Y20723376D01*
X52004039Y20681072D01*
X52035441Y20624705D01*
X52073557Y20556465D01*
X52117164Y20478540D01*
X52165037Y20393122D01*
X52215952Y20302398D01*
X52268685Y20208560D01*
X52272175Y20202354D01*
X52532568Y19739333D01*
X52967432Y19739333D01*
X53227825Y20202354D01*
X53280634Y20296321D01*
X53331706Y20387315D01*
X53379816Y20473149D01*
X53423740Y20551631D01*
X53462254Y20620573D01*
X53494133Y20677785D01*
X53518153Y20721078D01*
X53533089Y20748261D01*
X53533722Y20749427D01*
X53559171Y20793305D01*
X53586341Y20835179D01*
X53610320Y20867591D01*
X53615635Y20873781D01*
X53652046Y20914083D01*
X53838252Y20914083D01*
X53869671Y20871361D01*
X53880485Y20853228D01*
X53899174Y20817995D01*
X53924702Y20767765D01*
X53956035Y20704637D01*
X53992139Y20630714D01*
X54031979Y20548097D01*
X54074521Y20458887D01*
X54115860Y20371298D01*
X54189077Y20215417D01*
X54254269Y20076790D01*
X54312409Y19953512D01*
X54364472Y19843676D01*
X54411430Y19745377D01*
X54454256Y19656711D01*
X54493923Y19575771D01*
X54531404Y19500653D01*
X54567673Y19429450D01*
X54603702Y19360258D01*
X54640465Y19291170D01*
X54678934Y19220282D01*
X54720083Y19145687D01*
X54764884Y19065482D01*
X54814312Y18977759D01*
X54869338Y18880614D01*
X54930936Y18772141D01*
X54946641Y18744500D01*
X55316458Y18093625D01*
X55319988Y17975648D01*
X55321068Y17920602D01*
X55319906Y17880002D01*
X55315687Y17847174D01*
X55307598Y17815445D01*
X55296433Y17782585D01*
X55250529Y17673811D01*
X55193644Y17574327D01*
X55122274Y17478573D01*
X55063016Y17412048D01*
X55046807Y17397020D01*
X55015108Y17369665D01*
X54968981Y17330849D01*
X54909488Y17281437D01*
X54837690Y17222296D01*
X54754650Y17154292D01*
X54661430Y17078289D01*
X54559092Y16995155D01*
X54448698Y16905754D01*
X54331309Y16810954D01*
X54207989Y16711618D01*
X54079799Y16608614D01*
X53947801Y16502807D01*
X53943340Y16499236D01*
X52887722Y15654167D01*
X52747423Y15654956D01*
X52607125Y15655745D01*
X51566371Y16489685D01*
X51435376Y16594728D01*
X51308222Y16696845D01*
X51185970Y16795174D01*
X51069684Y16888856D01*
X50960424Y16977029D01*
X50859252Y17058834D01*
X50767231Y17133410D01*
X50685422Y17199896D01*
X50614888Y17257432D01*
X50556689Y17305156D01*
X50511889Y17342209D01*
X50481549Y17367730D01*
X50467055Y17380542D01*
X50423600Y17426465D01*
X50376863Y17481961D01*
X50331243Y17541257D01*
X50291140Y17598583D01*
X50260956Y17648165D01*
X50256372Y17656889D01*
X50239128Y17694025D01*
X50219621Y17740631D01*
X50203475Y17782839D01*
X50191277Y17819143D01*
X50183665Y17850651D01*
X50179829Y17884031D01*
X50178958Y17925948D01*
X50179332Y17943601D01*
X50331930Y17943601D01*
X50343404Y17898350D01*
X50365794Y17843575D01*
X50397365Y17782277D01*
X50436383Y17717456D01*
X50481111Y17652114D01*
X50529816Y17589251D01*
X50580762Y17531869D01*
X50602934Y17509620D01*
X50617610Y17496728D01*
X50646416Y17472557D01*
X50687658Y17438472D01*
X50739642Y17395840D01*
X50800675Y17346026D01*
X50869063Y17290397D01*
X50943112Y17230319D01*
X51021128Y17167158D01*
X51101418Y17102280D01*
X51182289Y17037051D01*
X51262045Y16972837D01*
X51338995Y16911004D01*
X51411443Y16852919D01*
X51477696Y16799946D01*
X51536061Y16753454D01*
X51584844Y16714807D01*
X51622351Y16685371D01*
X51646889Y16666514D01*
X51656763Y16659600D01*
X51656824Y16659591D01*
X51654406Y16668985D01*
X51646249Y16694753D01*
X51633536Y16733270D01*
X51617453Y16780906D01*
X51612355Y16795829D01*
X51544510Y16978016D01*
X51463700Y17167960D01*
X51372511Y17360629D01*
X51273527Y17550988D01*
X51169334Y17734005D01*
X51062518Y17904644D01*
X50984346Y18018538D01*
X50942445Y18073097D01*
X50892045Y18132602D01*
X50836856Y18193201D01*
X50780589Y18251042D01*
X50726952Y18302271D01*
X50679656Y18343036D01*
X50652518Y18363142D01*
X50620110Y18384038D01*
X50594381Y18399253D01*
X50580457Y18405775D01*
X50579916Y18405833D01*
X50572635Y18397087D01*
X50556940Y18372936D01*
X50534634Y18336516D01*
X50507518Y18290963D01*
X50477395Y18239412D01*
X50446064Y18184997D01*
X50415329Y18130854D01*
X50386990Y18080119D01*
X50362849Y18035925D01*
X50344708Y18001409D01*
X50334367Y17979705D01*
X50333108Y17976326D01*
X50331930Y17943601D01*
X50179332Y17943601D01*
X50180012Y17975648D01*
X50183542Y18093625D01*
X50454453Y18570427D01*
X50668055Y18570427D01*
X50675732Y18560743D01*
X50698100Y18545911D01*
X50730378Y18529084D01*
X50731555Y18528532D01*
X50760990Y18512916D01*
X50791240Y18492439D01*
X50825465Y18464483D01*
X50866826Y18426429D01*
X50918483Y18375661D01*
X50929667Y18364418D01*
X51026478Y18259980D01*
X51119592Y18145114D01*
X51210481Y18017651D01*
X51300615Y17875420D01*
X51391467Y17716252D01*
X51467804Y17571042D01*
X51553159Y17398096D01*
X51626437Y17238123D01*
X51688974Y17087723D01*
X51742104Y16943493D01*
X51787165Y16802033D01*
X51825273Y16660825D01*
X51839089Y16605819D01*
X51851604Y16557743D01*
X51861761Y16520534D01*
X51868499Y16498130D01*
X51870173Y16493852D01*
X51880102Y16483871D01*
X51904115Y16462841D01*
X51939709Y16432862D01*
X51984379Y16396032D01*
X52035622Y16354449D01*
X52056792Y16337442D01*
X52120916Y16286642D01*
X52170740Y16248570D01*
X52207939Y16222072D01*
X52234191Y16205996D01*
X52251173Y16199188D01*
X52257875Y16199140D01*
X52278840Y16204804D01*
X52312589Y16213806D01*
X52347833Y16223145D01*
X52370326Y16228351D01*
X52395749Y16232475D01*
X52426709Y16235631D01*
X52465813Y16237933D01*
X52515667Y16239494D01*
X52578877Y16240427D01*
X52658052Y16240845D01*
X52755292Y16240863D01*
X52850183Y16240652D01*
X52926657Y16240198D01*
X52987465Y16239346D01*
X53035357Y16237943D01*
X53073081Y16235835D01*
X53103390Y16232866D01*
X53129031Y16228884D01*
X53152756Y16223733D01*
X53177315Y16217260D01*
X53177571Y16217189D01*
X53219691Y16206919D01*
X53252592Y16201642D01*
X53271299Y16202104D01*
X53272821Y16202890D01*
X53310294Y16232006D01*
X53354835Y16267228D01*
X53403630Y16306260D01*
X53453859Y16346803D01*
X53502708Y16386562D01*
X53547358Y16423241D01*
X53584993Y16454541D01*
X53612796Y16478168D01*
X53627950Y16491823D01*
X53629827Y16493957D01*
X53634611Y16508084D01*
X53643306Y16538853D01*
X53654853Y16582329D01*
X53668194Y16634579D01*
X53674727Y16660825D01*
X53676431Y16667136D01*
X53851986Y16667136D01*
X53853317Y16667298D01*
X53863751Y16675595D01*
X53889244Y16695941D01*
X53928327Y16727163D01*
X53979532Y16768085D01*
X54041391Y16817535D01*
X54112433Y16874338D01*
X54191191Y16937320D01*
X54276196Y17005306D01*
X54365979Y17077124D01*
X54369250Y17079741D01*
X54482870Y17170779D01*
X54581212Y17249978D01*
X54665654Y17318560D01*
X54737569Y17377754D01*
X54798333Y17428784D01*
X54849322Y17472876D01*
X54891910Y17511255D01*
X54927474Y17545147D01*
X54957389Y17575779D01*
X54983029Y17604374D01*
X55005770Y17632160D01*
X55026988Y17660362D01*
X55037866Y17675583D01*
X55076905Y17735480D01*
X55110982Y17796373D01*
X55138539Y17854634D01*
X55158022Y17906638D01*
X55167874Y17948758D01*
X55166892Y17976326D01*
X55159083Y17993841D01*
X55142964Y18025054D01*
X55120336Y18066831D01*
X55093000Y18116035D01*
X55062760Y18169533D01*
X55031415Y18224189D01*
X55000767Y18276867D01*
X54972619Y18324433D01*
X54948771Y18363751D01*
X54931026Y18391687D01*
X54921184Y18405105D01*
X54920083Y18405833D01*
X54907603Y18400334D01*
X54882813Y18385843D01*
X54850836Y18365375D01*
X54847481Y18363142D01*
X54806766Y18331903D01*
X54757135Y18287526D01*
X54702300Y18233865D01*
X54645969Y18174772D01*
X54591852Y18114098D01*
X54543658Y18055697D01*
X54515653Y18018538D01*
X54408096Y17859418D01*
X54301350Y17684232D01*
X54197996Y17498007D01*
X54100614Y17305770D01*
X54011787Y17112547D01*
X53934094Y16923366D01*
X53887202Y16794536D01*
X53871175Y16745849D01*
X53859388Y16706226D01*
X53852704Y16678908D01*
X53851986Y16667136D01*
X53676431Y16667136D01*
X53713090Y16802902D01*
X53758196Y16944368D01*
X53811381Y17088626D01*
X53873979Y17239075D01*
X53947327Y17399117D01*
X54032196Y17571042D01*
X54124742Y17745774D01*
X54215359Y17901784D01*
X54305520Y18041241D01*
X54396696Y18166315D01*
X54490357Y18279176D01*
X54570333Y18364418D01*
X54624292Y18417885D01*
X54667357Y18458142D01*
X54702690Y18487806D01*
X54733449Y18509497D01*
X54762795Y18525831D01*
X54768444Y18528532D01*
X54800968Y18545371D01*
X54823738Y18560320D01*
X54831975Y18570223D01*
X54831944Y18570427D01*
X54826363Y18581834D01*
X54811452Y18609564D01*
X54788361Y18651547D01*
X54758243Y18705715D01*
X54722246Y18770001D01*
X54681523Y18842337D01*
X54637223Y18920654D01*
X54628774Y18935552D01*
X54576831Y19027813D01*
X54528780Y19114850D01*
X54483036Y19199770D01*
X54438010Y19285683D01*
X54392115Y19375696D01*
X54343766Y19472917D01*
X54291375Y19580455D01*
X54233355Y19701417D01*
X54175168Y19824000D01*
X54126291Y19927444D01*
X54078680Y20028381D01*
X54033379Y20124588D01*
X53991429Y20213846D01*
X53953872Y20293933D01*
X53921750Y20362628D01*
X53896107Y20417710D01*
X53877983Y20456959D01*
X53872233Y20469583D01*
X53847031Y20524500D01*
X53819922Y20582134D01*
X53794907Y20634037D01*
X53782322Y20659399D01*
X53742592Y20738090D01*
X53723032Y20712316D01*
X53711697Y20694414D01*
X53692877Y20661416D01*
X53668655Y20617108D01*
X53641110Y20565276D01*
X53621609Y20527792D01*
X53593760Y20474351D01*
X53568604Y20427132D01*
X53547994Y20389529D01*
X53533779Y20364934D01*
X53528519Y20357159D01*
X53521083Y20345631D01*
X53504477Y20317607D01*
X53479840Y20275078D01*
X53448309Y20220034D01*
X53411023Y20154467D01*
X53369119Y20080367D01*
X53323737Y19999725D01*
X53300333Y19957996D01*
X53083375Y19570715D01*
X53023037Y19570358D01*
X52976263Y19573156D01*
X52925167Y19580674D01*
X52901751Y19585875D01*
X52841194Y19596402D01*
X52769323Y19600942D01*
X52695128Y19599497D01*
X52627598Y19592066D01*
X52598249Y19585875D01*
X52551234Y19576674D01*
X52500212Y19571127D01*
X52476963Y19570358D01*
X52416625Y19570715D01*
X52199667Y19957996D01*
X52152983Y20041139D01*
X52109214Y20118727D01*
X52069500Y20188767D01*
X52034978Y20249269D01*
X52006786Y20298243D01*
X51986062Y20333696D01*
X51973944Y20353639D01*
X51971481Y20357159D01*
X51963073Y20370176D01*
X51946925Y20398667D01*
X51924886Y20439238D01*
X51898810Y20488497D01*
X51878390Y20527792D01*
X51849777Y20582571D01*
X51823075Y20632392D01*
X51800367Y20673469D01*
X51783732Y20702015D01*
X51776968Y20712316D01*
X51757408Y20738090D01*
X51717678Y20659399D01*
X51695928Y20615194D01*
X51669628Y20560074D01*
X51642782Y20502489D01*
X51627767Y20469583D01*
X51613647Y20438775D01*
X51591504Y20391061D01*
X51562380Y20328661D01*
X51527318Y20253797D01*
X51487359Y20168690D01*
X51443545Y20075561D01*
X51396919Y19976631D01*
X51348524Y19874120D01*
X51324831Y19824000D01*
X51260407Y19688339D01*
X51203035Y19568892D01*
X51151130Y19462553D01*
X51103105Y19366211D01*
X51057372Y19276760D01*
X51012345Y19191092D01*
X50966437Y19106097D01*
X50918062Y19018669D01*
X50871226Y18935552D01*
X50826394Y18856359D01*
X50784926Y18782768D01*
X50747973Y18716846D01*
X50716687Y18660660D01*
X50692217Y18616280D01*
X50675714Y18585773D01*
X50668330Y18571206D01*
X50668055Y18570427D01*
X50454453Y18570427D01*
X50553359Y18744500D01*
X50616661Y18855944D01*
X50673160Y18955607D01*
X50723830Y19045396D01*
X50769642Y19127214D01*
X50811570Y19202969D01*
X50850588Y19274565D01*
X50887668Y19343908D01*
X50923783Y19412903D01*
X50959907Y19483456D01*
X50997012Y19557472D01*
X51036072Y19636856D01*
X51078059Y19723514D01*
X51123947Y19819352D01*
X51174709Y19926275D01*
X51231318Y20046188D01*
X51294747Y20180996D01*
X51365969Y20332606D01*
X51384139Y20371298D01*
X51428272Y20464775D01*
X51470672Y20553625D01*
X51510303Y20635747D01*
X51546132Y20709040D01*
X51577123Y20771402D01*
X51602243Y20820732D01*
X51620457Y20854929D01*
X51630329Y20871361D01*
X51661748Y20914083D01*
X51847953Y20914083D01*
X51884364Y20873781D01*
%TD*%
%TO.C,R12*%
G36*
G01*
X22912500Y7912500D02*
X22387500Y7912500D01*
G75*
G02*
X22125000Y8175000I0J262500D01*
G01*
X22125000Y8800000D01*
G75*
G02*
X22387500Y9062500I262500J0D01*
G01*
X22912500Y9062500D01*
G75*
G02*
X23175000Y8800000I0J-262500D01*
G01*
X23175000Y8175000D01*
G75*
G02*
X22912500Y7912500I-262500J0D01*
G01*
G37*
G36*
G01*
X22912500Y6162500D02*
X22387500Y6162500D01*
G75*
G02*
X22125000Y6425000I0J262500D01*
G01*
X22125000Y7050000D01*
G75*
G02*
X22387500Y7312500I262500J0D01*
G01*
X22912500Y7312500D01*
G75*
G02*
X23175000Y7050000I0J-262500D01*
G01*
X23175000Y6425000D01*
G75*
G02*
X22912500Y6162500I-262500J0D01*
G01*
G37*
%TD*%
%TO.C,R11*%
G36*
G01*
X25012500Y11312500D02*
X24487500Y11312500D01*
G75*
G02*
X24225000Y11575000I0J262500D01*
G01*
X24225000Y12200000D01*
G75*
G02*
X24487500Y12462500I262500J0D01*
G01*
X25012500Y12462500D01*
G75*
G02*
X25275000Y12200000I0J-262500D01*
G01*
X25275000Y11575000D01*
G75*
G02*
X25012500Y11312500I-262500J0D01*
G01*
G37*
G36*
G01*
X25012500Y9562500D02*
X24487500Y9562500D01*
G75*
G02*
X24225000Y9825000I0J262500D01*
G01*
X24225000Y10450000D01*
G75*
G02*
X24487500Y10712500I262500J0D01*
G01*
X25012500Y10712500D01*
G75*
G02*
X25275000Y10450000I0J-262500D01*
G01*
X25275000Y9825000D01*
G75*
G02*
X25012500Y9562500I-262500J0D01*
G01*
G37*
%TD*%
%TO.C,R10*%
G36*
G01*
X26612500Y7912500D02*
X26087500Y7912500D01*
G75*
G02*
X25825000Y8175000I0J262500D01*
G01*
X25825000Y8800000D01*
G75*
G02*
X26087500Y9062500I262500J0D01*
G01*
X26612500Y9062500D01*
G75*
G02*
X26875000Y8800000I0J-262500D01*
G01*
X26875000Y8175000D01*
G75*
G02*
X26612500Y7912500I-262500J0D01*
G01*
G37*
G36*
G01*
X26612500Y6162500D02*
X26087500Y6162500D01*
G75*
G02*
X25825000Y6425000I0J262500D01*
G01*
X25825000Y7050000D01*
G75*
G02*
X26087500Y7312500I262500J0D01*
G01*
X26612500Y7312500D01*
G75*
G02*
X26875000Y7050000I0J-262500D01*
G01*
X26875000Y6425000D01*
G75*
G02*
X26612500Y6162500I-262500J0D01*
G01*
G37*
%TD*%
%TO.C,R9*%
G36*
G01*
X28712500Y7900000D02*
X28187500Y7900000D01*
G75*
G02*
X27925000Y8162500I0J262500D01*
G01*
X27925000Y8787500D01*
G75*
G02*
X28187500Y9050000I262500J0D01*
G01*
X28712500Y9050000D01*
G75*
G02*
X28975000Y8787500I0J-262500D01*
G01*
X28975000Y8162500D01*
G75*
G02*
X28712500Y7900000I-262500J0D01*
G01*
G37*
G36*
G01*
X28712500Y6150000D02*
X28187500Y6150000D01*
G75*
G02*
X27925000Y6412500I0J262500D01*
G01*
X27925000Y7037500D01*
G75*
G02*
X28187500Y7300000I262500J0D01*
G01*
X28712500Y7300000D01*
G75*
G02*
X28975000Y7037500I0J-262500D01*
G01*
X28975000Y6412500D01*
G75*
G02*
X28712500Y6150000I-262500J0D01*
G01*
G37*
%TD*%
%TO.C,R8*%
G36*
G01*
X32300000Y21687500D02*
X32300000Y22212500D01*
G75*
G02*
X32562500Y22475000I262500J0D01*
G01*
X33187500Y22475000D01*
G75*
G02*
X33450000Y22212500I0J-262500D01*
G01*
X33450000Y21687500D01*
G75*
G02*
X33187500Y21425000I-262500J0D01*
G01*
X32562500Y21425000D01*
G75*
G02*
X32300000Y21687500I0J262500D01*
G01*
G37*
G36*
G01*
X30550000Y21687500D02*
X30550000Y22212500D01*
G75*
G02*
X30812500Y22475000I262500J0D01*
G01*
X31437500Y22475000D01*
G75*
G02*
X31700000Y22212500I0J-262500D01*
G01*
X31700000Y21687500D01*
G75*
G02*
X31437500Y21425000I-262500J0D01*
G01*
X30812500Y21425000D01*
G75*
G02*
X30550000Y21687500I0J262500D01*
G01*
G37*
%TD*%
%TO.C,R7*%
G36*
G01*
X32587500Y7587500D02*
X33112500Y7587500D01*
G75*
G02*
X33375000Y7325000I0J-262500D01*
G01*
X33375000Y6700000D01*
G75*
G02*
X33112500Y6437500I-262500J0D01*
G01*
X32587500Y6437500D01*
G75*
G02*
X32325000Y6700000I0J262500D01*
G01*
X32325000Y7325000D01*
G75*
G02*
X32587500Y7587500I262500J0D01*
G01*
G37*
G36*
G01*
X32587500Y9337500D02*
X33112500Y9337500D01*
G75*
G02*
X33375000Y9075000I0J-262500D01*
G01*
X33375000Y8450000D01*
G75*
G02*
X33112500Y8187500I-262500J0D01*
G01*
X32587500Y8187500D01*
G75*
G02*
X32325000Y8450000I0J262500D01*
G01*
X32325000Y9075000D01*
G75*
G02*
X32587500Y9337500I262500J0D01*
G01*
G37*
%TD*%
%TO.C,R6*%
G36*
G01*
X35050000Y8862500D02*
X35050000Y8337500D01*
G75*
G02*
X34787500Y8075000I-262500J0D01*
G01*
X34162500Y8075000D01*
G75*
G02*
X33900000Y8337500I0J262500D01*
G01*
X33900000Y8862500D01*
G75*
G02*
X34162500Y9125000I262500J0D01*
G01*
X34787500Y9125000D01*
G75*
G02*
X35050000Y8862500I0J-262500D01*
G01*
G37*
G36*
G01*
X36800000Y8862500D02*
X36800000Y8337500D01*
G75*
G02*
X36537500Y8075000I-262500J0D01*
G01*
X35912500Y8075000D01*
G75*
G02*
X35650000Y8337500I0J262500D01*
G01*
X35650000Y8862500D01*
G75*
G02*
X35912500Y9125000I262500J0D01*
G01*
X36537500Y9125000D01*
G75*
G02*
X36800000Y8862500I0J-262500D01*
G01*
G37*
%TD*%
%TO.C,R5*%
G36*
G01*
X33112500Y18650000D02*
X32587500Y18650000D01*
G75*
G02*
X32325000Y18912500I0J262500D01*
G01*
X32325000Y19537500D01*
G75*
G02*
X32587500Y19800000I262500J0D01*
G01*
X33112500Y19800000D01*
G75*
G02*
X33375000Y19537500I0J-262500D01*
G01*
X33375000Y18912500D01*
G75*
G02*
X33112500Y18650000I-262500J0D01*
G01*
G37*
G36*
G01*
X33112500Y16900000D02*
X32587500Y16900000D01*
G75*
G02*
X32325000Y17162500I0J262500D01*
G01*
X32325000Y17787500D01*
G75*
G02*
X32587500Y18050000I262500J0D01*
G01*
X33112500Y18050000D01*
G75*
G02*
X33375000Y17787500I0J-262500D01*
G01*
X33375000Y17162500D01*
G75*
G02*
X33112500Y16900000I-262500J0D01*
G01*
G37*
%TD*%
%TO.C,R4*%
G36*
G01*
X27237500Y19372500D02*
X27237500Y18847500D01*
G75*
G02*
X26975000Y18585000I-262500J0D01*
G01*
X26350000Y18585000D01*
G75*
G02*
X26087500Y18847500I0J262500D01*
G01*
X26087500Y19372500D01*
G75*
G02*
X26350000Y19635000I262500J0D01*
G01*
X26975000Y19635000D01*
G75*
G02*
X27237500Y19372500I0J-262500D01*
G01*
G37*
G36*
G01*
X28987500Y19372500D02*
X28987500Y18847500D01*
G75*
G02*
X28725000Y18585000I-262500J0D01*
G01*
X28100000Y18585000D01*
G75*
G02*
X27837500Y18847500I0J262500D01*
G01*
X27837500Y19372500D01*
G75*
G02*
X28100000Y19635000I262500J0D01*
G01*
X28725000Y19635000D01*
G75*
G02*
X28987500Y19372500I0J-262500D01*
G01*
G37*
%TD*%
%TO.C,R3*%
G36*
G01*
X27237500Y20932500D02*
X27237500Y20407500D01*
G75*
G02*
X26975000Y20145000I-262500J0D01*
G01*
X26350000Y20145000D01*
G75*
G02*
X26087500Y20407500I0J262500D01*
G01*
X26087500Y20932500D01*
G75*
G02*
X26350000Y21195000I262500J0D01*
G01*
X26975000Y21195000D01*
G75*
G02*
X27237500Y20932500I0J-262500D01*
G01*
G37*
G36*
G01*
X28987500Y20932500D02*
X28987500Y20407500D01*
G75*
G02*
X28725000Y20145000I-262500J0D01*
G01*
X28100000Y20145000D01*
G75*
G02*
X27837500Y20407500I0J262500D01*
G01*
X27837500Y20932500D01*
G75*
G02*
X28100000Y21195000I262500J0D01*
G01*
X28725000Y21195000D01*
G75*
G02*
X28987500Y20932500I0J-262500D01*
G01*
G37*
%TD*%
%TO.C,R2*%
G36*
G01*
X45900000Y13637500D02*
X45900000Y14162500D01*
G75*
G02*
X46162500Y14425000I262500J0D01*
G01*
X46787500Y14425000D01*
G75*
G02*
X47050000Y14162500I0J-262500D01*
G01*
X47050000Y13637500D01*
G75*
G02*
X46787500Y13375000I-262500J0D01*
G01*
X46162500Y13375000D01*
G75*
G02*
X45900000Y13637500I0J262500D01*
G01*
G37*
G36*
G01*
X44150000Y13637500D02*
X44150000Y14162500D01*
G75*
G02*
X44412500Y14425000I262500J0D01*
G01*
X45037500Y14425000D01*
G75*
G02*
X45300000Y14162500I0J-262500D01*
G01*
X45300000Y13637500D01*
G75*
G02*
X45037500Y13375000I-262500J0D01*
G01*
X44412500Y13375000D01*
G75*
G02*
X44150000Y13637500I0J262500D01*
G01*
G37*
%TD*%
%TO.C,R1*%
G36*
G01*
X42350000Y13637500D02*
X42350000Y14162500D01*
G75*
G02*
X42612500Y14425000I262500J0D01*
G01*
X43237500Y14425000D01*
G75*
G02*
X43500000Y14162500I0J-262500D01*
G01*
X43500000Y13637500D01*
G75*
G02*
X43237500Y13375000I-262500J0D01*
G01*
X42612500Y13375000D01*
G75*
G02*
X42350000Y13637500I0J262500D01*
G01*
G37*
G36*
G01*
X40600000Y13637500D02*
X40600000Y14162500D01*
G75*
G02*
X40862500Y14425000I262500J0D01*
G01*
X41487500Y14425000D01*
G75*
G02*
X41750000Y14162500I0J-262500D01*
G01*
X41750000Y13637500D01*
G75*
G02*
X41487500Y13375000I-262500J0D01*
G01*
X40862500Y13375000D01*
G75*
G02*
X40600000Y13637500I0J262500D01*
G01*
G37*
%TD*%
D11*
%TO.C,D1*%
X41250000Y7050000D03*
X41250000Y9550000D03*
%TD*%
%TO.C,C11*%
G36*
G01*
X31412500Y18650000D02*
X30887500Y18650000D01*
G75*
G02*
X30625000Y18912500I0J262500D01*
G01*
X30625000Y19537500D01*
G75*
G02*
X30887500Y19800000I262500J0D01*
G01*
X31412500Y19800000D01*
G75*
G02*
X31675000Y19537500I0J-262500D01*
G01*
X31675000Y18912500D01*
G75*
G02*
X31412500Y18650000I-262500J0D01*
G01*
G37*
G36*
G01*
X31412500Y16900000D02*
X30887500Y16900000D01*
G75*
G02*
X30625000Y17162500I0J262500D01*
G01*
X30625000Y17787500D01*
G75*
G02*
X30887500Y18050000I262500J0D01*
G01*
X31412500Y18050000D01*
G75*
G02*
X31675000Y17787500I0J-262500D01*
G01*
X31675000Y17162500D01*
G75*
G02*
X31412500Y16900000I-262500J0D01*
G01*
G37*
%TD*%
%TO.C,C10*%
G36*
G01*
X22912500Y11300000D02*
X22387500Y11300000D01*
G75*
G02*
X22125000Y11562500I0J262500D01*
G01*
X22125000Y12187500D01*
G75*
G02*
X22387500Y12450000I262500J0D01*
G01*
X22912500Y12450000D01*
G75*
G02*
X23175000Y12187500I0J-262500D01*
G01*
X23175000Y11562500D01*
G75*
G02*
X22912500Y11300000I-262500J0D01*
G01*
G37*
G36*
G01*
X22912500Y9550000D02*
X22387500Y9550000D01*
G75*
G02*
X22125000Y9812500I0J262500D01*
G01*
X22125000Y10437500D01*
G75*
G02*
X22387500Y10700000I262500J0D01*
G01*
X22912500Y10700000D01*
G75*
G02*
X23175000Y10437500I0J-262500D01*
G01*
X23175000Y9812500D01*
G75*
G02*
X22912500Y9550000I-262500J0D01*
G01*
G37*
%TD*%
%TO.C,C9*%
G36*
G01*
X25012500Y7900000D02*
X24487500Y7900000D01*
G75*
G02*
X24225000Y8162500I0J262500D01*
G01*
X24225000Y8787500D01*
G75*
G02*
X24487500Y9050000I262500J0D01*
G01*
X25012500Y9050000D01*
G75*
G02*
X25275000Y8787500I0J-262500D01*
G01*
X25275000Y8162500D01*
G75*
G02*
X25012500Y7900000I-262500J0D01*
G01*
G37*
G36*
G01*
X25012500Y6150000D02*
X24487500Y6150000D01*
G75*
G02*
X24225000Y6412500I0J262500D01*
G01*
X24225000Y7037500D01*
G75*
G02*
X24487500Y7300000I262500J0D01*
G01*
X25012500Y7300000D01*
G75*
G02*
X25275000Y7037500I0J-262500D01*
G01*
X25275000Y6412500D01*
G75*
G02*
X25012500Y6150000I-262500J0D01*
G01*
G37*
%TD*%
%TO.C,C8*%
G36*
G01*
X26612500Y11287500D02*
X26087500Y11287500D01*
G75*
G02*
X25825000Y11550000I0J262500D01*
G01*
X25825000Y12175000D01*
G75*
G02*
X26087500Y12437500I262500J0D01*
G01*
X26612500Y12437500D01*
G75*
G02*
X26875000Y12175000I0J-262500D01*
G01*
X26875000Y11550000D01*
G75*
G02*
X26612500Y11287500I-262500J0D01*
G01*
G37*
G36*
G01*
X26612500Y9537500D02*
X26087500Y9537500D01*
G75*
G02*
X25825000Y9800000I0J262500D01*
G01*
X25825000Y10425000D01*
G75*
G02*
X26087500Y10687500I262500J0D01*
G01*
X26612500Y10687500D01*
G75*
G02*
X26875000Y10425000I0J-262500D01*
G01*
X26875000Y9800000D01*
G75*
G02*
X26612500Y9537500I-262500J0D01*
G01*
G37*
%TD*%
%TO.C,C7*%
G36*
G01*
X28712500Y11300000D02*
X28187500Y11300000D01*
G75*
G02*
X27925000Y11562500I0J262500D01*
G01*
X27925000Y12187500D01*
G75*
G02*
X28187500Y12450000I262500J0D01*
G01*
X28712500Y12450000D01*
G75*
G02*
X28975000Y12187500I0J-262500D01*
G01*
X28975000Y11562500D01*
G75*
G02*
X28712500Y11300000I-262500J0D01*
G01*
G37*
G36*
G01*
X28712500Y9550000D02*
X28187500Y9550000D01*
G75*
G02*
X27925000Y9812500I0J262500D01*
G01*
X27925000Y10437500D01*
G75*
G02*
X28187500Y10700000I262500J0D01*
G01*
X28712500Y10700000D01*
G75*
G02*
X28975000Y10437500I0J-262500D01*
G01*
X28975000Y9812500D01*
G75*
G02*
X28712500Y9550000I-262500J0D01*
G01*
G37*
%TD*%
%TO.C,C6*%
G36*
G01*
X33328262Y12250000D02*
X32371738Y12250000D01*
G75*
G02*
X32100000Y12521738I0J271738D01*
G01*
X32100000Y13228262D01*
G75*
G02*
X32371738Y13500000I271738J0D01*
G01*
X33328262Y13500000D01*
G75*
G02*
X33600000Y13228262I0J-271738D01*
G01*
X33600000Y12521738D01*
G75*
G02*
X33328262Y12250000I-271738J0D01*
G01*
G37*
G36*
G01*
X33328262Y10200000D02*
X32371738Y10200000D01*
G75*
G02*
X32100000Y10471738I0J271738D01*
G01*
X32100000Y11178262D01*
G75*
G02*
X32371738Y11450000I271738J0D01*
G01*
X33328262Y11450000D01*
G75*
G02*
X33600000Y11178262I0J-271738D01*
G01*
X33600000Y10471738D01*
G75*
G02*
X33328262Y10200000I-271738J0D01*
G01*
G37*
%TD*%
%TO.C,C5*%
G36*
G01*
X43312500Y20150000D02*
X42787500Y20150000D01*
G75*
G02*
X42525000Y20412500I0J262500D01*
G01*
X42525000Y21037500D01*
G75*
G02*
X42787500Y21300000I262500J0D01*
G01*
X43312500Y21300000D01*
G75*
G02*
X43575000Y21037500I0J-262500D01*
G01*
X43575000Y20412500D01*
G75*
G02*
X43312500Y20150000I-262500J0D01*
G01*
G37*
G36*
G01*
X43312500Y18400000D02*
X42787500Y18400000D01*
G75*
G02*
X42525000Y18662500I0J262500D01*
G01*
X42525000Y19287500D01*
G75*
G02*
X42787500Y19550000I262500J0D01*
G01*
X43312500Y19550000D01*
G75*
G02*
X43575000Y19287500I0J-262500D01*
G01*
X43575000Y18662500D01*
G75*
G02*
X43312500Y18400000I-262500J0D01*
G01*
G37*
%TD*%
%TO.C,C4*%
G36*
G01*
X23800000Y19372500D02*
X23800000Y18847500D01*
G75*
G02*
X23537500Y18585000I-262500J0D01*
G01*
X22912500Y18585000D01*
G75*
G02*
X22650000Y18847500I0J262500D01*
G01*
X22650000Y19372500D01*
G75*
G02*
X22912500Y19635000I262500J0D01*
G01*
X23537500Y19635000D01*
G75*
G02*
X23800000Y19372500I0J-262500D01*
G01*
G37*
G36*
G01*
X25550000Y19372500D02*
X25550000Y18847500D01*
G75*
G02*
X25287500Y18585000I-262500J0D01*
G01*
X24662500Y18585000D01*
G75*
G02*
X24400000Y18847500I0J262500D01*
G01*
X24400000Y19372500D01*
G75*
G02*
X24662500Y19635000I262500J0D01*
G01*
X25287500Y19635000D01*
G75*
G02*
X25550000Y19372500I0J-262500D01*
G01*
G37*
%TD*%
%TO.C,C3*%
G36*
G01*
X23800000Y20932500D02*
X23800000Y20407500D01*
G75*
G02*
X23537500Y20145000I-262500J0D01*
G01*
X22912500Y20145000D01*
G75*
G02*
X22650000Y20407500I0J262500D01*
G01*
X22650000Y20932500D01*
G75*
G02*
X22912500Y21195000I262500J0D01*
G01*
X23537500Y21195000D01*
G75*
G02*
X23800000Y20932500I0J-262500D01*
G01*
G37*
G36*
G01*
X25550000Y20932500D02*
X25550000Y20407500D01*
G75*
G02*
X25287500Y20145000I-262500J0D01*
G01*
X24662500Y20145000D01*
G75*
G02*
X24400000Y20407500I0J262500D01*
G01*
X24400000Y20932500D01*
G75*
G02*
X24662500Y21195000I262500J0D01*
G01*
X25287500Y21195000D01*
G75*
G02*
X25550000Y20932500I0J-262500D01*
G01*
G37*
%TD*%
%TO.C,C2*%
G36*
G01*
X35387500Y13350000D02*
X35912500Y13350000D01*
G75*
G02*
X36175000Y13087500I0J-262500D01*
G01*
X36175000Y12462500D01*
G75*
G02*
X35912500Y12200000I-262500J0D01*
G01*
X35387500Y12200000D01*
G75*
G02*
X35125000Y12462500I0J262500D01*
G01*
X35125000Y13087500D01*
G75*
G02*
X35387500Y13350000I262500J0D01*
G01*
G37*
G36*
G01*
X35387500Y15100000D02*
X35912500Y15100000D01*
G75*
G02*
X36175000Y14837500I0J-262500D01*
G01*
X36175000Y14212500D01*
G75*
G02*
X35912500Y13950000I-262500J0D01*
G01*
X35387500Y13950000D01*
G75*
G02*
X35125000Y14212500I0J262500D01*
G01*
X35125000Y14837500D01*
G75*
G02*
X35387500Y15100000I262500J0D01*
G01*
G37*
%TD*%
%TO.C,C1*%
G36*
G01*
X42650000Y11221738D02*
X42650000Y12178262D01*
G75*
G02*
X42921738Y12450000I271738J0D01*
G01*
X43628262Y12450000D01*
G75*
G02*
X43900000Y12178262I0J-271738D01*
G01*
X43900000Y11221738D01*
G75*
G02*
X43628262Y10950000I-271738J0D01*
G01*
X42921738Y10950000D01*
G75*
G02*
X42650000Y11221738I0J271738D01*
G01*
G37*
G36*
G01*
X40600000Y11221738D02*
X40600000Y12178262D01*
G75*
G02*
X40871738Y12450000I271738J0D01*
G01*
X41578262Y12450000D01*
G75*
G02*
X41850000Y12178262I0J-271738D01*
G01*
X41850000Y11221738D01*
G75*
G02*
X41578262Y10950000I-271738J0D01*
G01*
X40871738Y10950000D01*
G75*
G02*
X40600000Y11221738I0J271738D01*
G01*
G37*
%TD*%
D12*
%TO.C,J15*%
X19750000Y4100000D03*
%TD*%
%TO.C,J14*%
X22650000Y4100000D03*
%TD*%
%TO.C,J13*%
X25550000Y4100000D03*
%TD*%
%TO.C,J12*%
X28450000Y4100000D03*
%TD*%
D13*
%TO.C,J11*%
X61950000Y6800000D03*
%TD*%
%TO.C,J10*%
X2050000Y6800000D03*
%TD*%
%TO.C,J9*%
X61950000Y22700000D03*
%TD*%
%TO.C,J8*%
X2050000Y22600000D03*
%TD*%
D12*
%TO.C,J7*%
X35750000Y4200000D03*
%TD*%
%TO.C,J6*%
X32850000Y4200000D03*
%TD*%
D13*
%TO.C,J5*%
X5850000Y20400000D03*
%TD*%
%TO.C,J4*%
X5850000Y14600000D03*
%TD*%
%TO.C,J3*%
X5850000Y17500000D03*
%TD*%
D12*
%TO.C,J2*%
X44150000Y4400000D03*
%TD*%
%TO.C,J1*%
X41250000Y4400000D03*
%TD*%
%TO.C,U1*%
G36*
G01*
X36600000Y16620000D02*
X36600000Y16270000D01*
G75*
G02*
X36425000Y16095000I-175000J0D01*
G01*
X34725000Y16095000D01*
G75*
G02*
X34550000Y16270000I0J175000D01*
G01*
X34550000Y16620000D01*
G75*
G02*
X34725000Y16795000I175000J0D01*
G01*
X36425000Y16795000D01*
G75*
G02*
X36600000Y16620000I0J-175000D01*
G01*
G37*
G36*
G01*
X36600000Y17890000D02*
X36600000Y17540000D01*
G75*
G02*
X36425000Y17365000I-175000J0D01*
G01*
X34725000Y17365000D01*
G75*
G02*
X34550000Y17540000I0J175000D01*
G01*
X34550000Y17890000D01*
G75*
G02*
X34725000Y18065000I175000J0D01*
G01*
X36425000Y18065000D01*
G75*
G02*
X36600000Y17890000I0J-175000D01*
G01*
G37*
G36*
G01*
X36600000Y19160000D02*
X36600000Y18810000D01*
G75*
G02*
X36425000Y18635000I-175000J0D01*
G01*
X34725000Y18635000D01*
G75*
G02*
X34550000Y18810000I0J175000D01*
G01*
X34550000Y19160000D01*
G75*
G02*
X34725000Y19335000I175000J0D01*
G01*
X36425000Y19335000D01*
G75*
G02*
X36600000Y19160000I0J-175000D01*
G01*
G37*
G36*
G01*
X36600000Y20430000D02*
X36600000Y20080000D01*
G75*
G02*
X36425000Y19905000I-175000J0D01*
G01*
X34725000Y19905000D01*
G75*
G02*
X34550000Y20080000I0J175000D01*
G01*
X34550000Y20430000D01*
G75*
G02*
X34725000Y20605000I175000J0D01*
G01*
X36425000Y20605000D01*
G75*
G02*
X36600000Y20430000I0J-175000D01*
G01*
G37*
G36*
G01*
X41550000Y20430000D02*
X41550000Y20080000D01*
G75*
G02*
X41375000Y19905000I-175000J0D01*
G01*
X39675000Y19905000D01*
G75*
G02*
X39500000Y20080000I0J175000D01*
G01*
X39500000Y20430000D01*
G75*
G02*
X39675000Y20605000I175000J0D01*
G01*
X41375000Y20605000D01*
G75*
G02*
X41550000Y20430000I0J-175000D01*
G01*
G37*
G36*
G01*
X41550000Y19160000D02*
X41550000Y18810000D01*
G75*
G02*
X41375000Y18635000I-175000J0D01*
G01*
X39675000Y18635000D01*
G75*
G02*
X39500000Y18810000I0J175000D01*
G01*
X39500000Y19160000D01*
G75*
G02*
X39675000Y19335000I175000J0D01*
G01*
X41375000Y19335000D01*
G75*
G02*
X41550000Y19160000I0J-175000D01*
G01*
G37*
G36*
G01*
X41550000Y17890000D02*
X41550000Y17540000D01*
G75*
G02*
X41375000Y17365000I-175000J0D01*
G01*
X39675000Y17365000D01*
G75*
G02*
X39500000Y17540000I0J175000D01*
G01*
X39500000Y17890000D01*
G75*
G02*
X39675000Y18065000I175000J0D01*
G01*
X41375000Y18065000D01*
G75*
G02*
X41550000Y17890000I0J-175000D01*
G01*
G37*
G36*
G01*
X41550000Y16620000D02*
X41550000Y16270000D01*
G75*
G02*
X41375000Y16095000I-175000J0D01*
G01*
X39675000Y16095000D01*
G75*
G02*
X39500000Y16270000I0J175000D01*
G01*
X39500000Y16620000D01*
G75*
G02*
X39675000Y16795000I175000J0D01*
G01*
X41375000Y16795000D01*
G75*
G02*
X41550000Y16620000I0J-175000D01*
G01*
G37*
%TD*%
D14*
%TO.C,H2*%
X52750000Y8500000D03*
%TD*%
%TO.C,H1*%
X11250000Y8500000D03*
%TD*%
M02*
