%TF.GenerationSoftware,KiCad,Pcbnew,5.1.6*%
%TF.CreationDate,2020-09-16T21:40:07+02:00*%
%TF.ProjectId,HumbuckerAmplifier,48756d62-7563-46b6-9572-416d706c6966,rev?*%
%TF.SameCoordinates,PX6183610PY5204180*%
%TF.FileFunction,Legend,Top*%
%TF.FilePolarity,Positive*%
%FSLAX46Y46*%
G04 Gerber Fmt 4.6, Leading zero omitted, Abs format (unit mm)*
G04 Created by KiCad (PCBNEW 5.1.6) date 2020-09-16 21:40:07*
%MOMM*%
%LPD*%
G01*
G04 APERTURE LIST*
%ADD10C,0.150000*%
%ADD11C,0.120000*%
G04 APERTURE END LIST*
D10*
X8916666Y14242858D02*
X8869047Y14195239D01*
X8726190Y14147620D01*
X8630952Y14147620D01*
X8488095Y14195239D01*
X8392857Y14290477D01*
X8345238Y14385715D01*
X8297619Y14576191D01*
X8297619Y14719048D01*
X8345238Y14909524D01*
X8392857Y15004762D01*
X8488095Y15100000D01*
X8630952Y15147620D01*
X8726190Y15147620D01*
X8869047Y15100000D01*
X8916666Y15052381D01*
X9535714Y15147620D02*
X9726190Y15147620D01*
X9821428Y15100000D01*
X9916666Y15004762D01*
X9964285Y14814286D01*
X9964285Y14480953D01*
X9916666Y14290477D01*
X9821428Y14195239D01*
X9726190Y14147620D01*
X9535714Y14147620D01*
X9440476Y14195239D01*
X9345238Y14290477D01*
X9297619Y14480953D01*
X9297619Y14814286D01*
X9345238Y15004762D01*
X9440476Y15100000D01*
X9535714Y15147620D01*
X10392857Y14147620D02*
X10392857Y15147620D01*
X11345238Y14147620D02*
X10869047Y14147620D01*
X10869047Y15147620D01*
X12202380Y14147620D02*
X11630952Y14147620D01*
X11916666Y14147620D02*
X11916666Y15147620D01*
X11821428Y15004762D01*
X11726190Y14909524D01*
X11630952Y14861905D01*
X8916666Y17142858D02*
X8869047Y17095239D01*
X8726190Y17047620D01*
X8630952Y17047620D01*
X8488095Y17095239D01*
X8392857Y17190477D01*
X8345238Y17285715D01*
X8297619Y17476191D01*
X8297619Y17619048D01*
X8345238Y17809524D01*
X8392857Y17904762D01*
X8488095Y18000000D01*
X8630952Y18047620D01*
X8726190Y18047620D01*
X8869047Y18000000D01*
X8916666Y17952381D01*
X9535714Y18047620D02*
X9726190Y18047620D01*
X9821428Y18000000D01*
X9916666Y17904762D01*
X9964285Y17714286D01*
X9964285Y17380953D01*
X9916666Y17190477D01*
X9821428Y17095239D01*
X9726190Y17047620D01*
X9535714Y17047620D01*
X9440476Y17095239D01*
X9345238Y17190477D01*
X9297619Y17380953D01*
X9297619Y17714286D01*
X9345238Y17904762D01*
X9440476Y18000000D01*
X9535714Y18047620D01*
X10392857Y17047620D02*
X10392857Y18047620D01*
X11345238Y17047620D02*
X10869047Y17047620D01*
X10869047Y18047620D01*
X12202380Y17047620D02*
X11630952Y17047620D01*
X11916666Y17047620D02*
X11916666Y18047620D01*
X11821428Y17904762D01*
X11726190Y17809524D01*
X11630952Y17761905D01*
X8888095Y20900000D02*
X8792857Y20947620D01*
X8650000Y20947620D01*
X8507142Y20900000D01*
X8411904Y20804762D01*
X8364285Y20709524D01*
X8316666Y20519048D01*
X8316666Y20376191D01*
X8364285Y20185715D01*
X8411904Y20090477D01*
X8507142Y19995239D01*
X8650000Y19947620D01*
X8745238Y19947620D01*
X8888095Y19995239D01*
X8935714Y20042858D01*
X8935714Y20376191D01*
X8745238Y20376191D01*
X9364285Y19947620D02*
X9364285Y20947620D01*
X9935714Y19947620D01*
X9935714Y20947620D01*
X10411904Y19947620D02*
X10411904Y20947620D01*
X10650000Y20947620D01*
X10792857Y20900000D01*
X10888095Y20804762D01*
X10935714Y20709524D01*
X10983333Y20519048D01*
X10983333Y20376191D01*
X10935714Y20185715D01*
X10888095Y20090477D01*
X10792857Y19995239D01*
X10650000Y19947620D01*
X10411904Y19947620D01*
X14066666Y3647620D02*
X14066666Y4647620D01*
X14400000Y3933334D01*
X14733333Y4647620D01*
X14733333Y3647620D01*
X15400000Y4647620D02*
X15590476Y4647620D01*
X15685714Y4600000D01*
X15780952Y4504762D01*
X15828571Y4314286D01*
X15828571Y3980953D01*
X15780952Y3790477D01*
X15685714Y3695239D01*
X15590476Y3647620D01*
X15400000Y3647620D01*
X15304761Y3695239D01*
X15209523Y3790477D01*
X15161904Y3980953D01*
X15161904Y4314286D01*
X15209523Y4504762D01*
X15304761Y4600000D01*
X15400000Y4647620D01*
X16257142Y3647620D02*
X16257142Y4647620D01*
X16495238Y4647620D01*
X16638095Y4600000D01*
X16733333Y4504762D01*
X16780952Y4409524D01*
X16828571Y4219048D01*
X16828571Y4076191D01*
X16780952Y3885715D01*
X16733333Y3790477D01*
X16638095Y3695239D01*
X16495238Y3647620D01*
X16257142Y3647620D01*
X17209523Y3695239D02*
X17352380Y3647620D01*
X17590476Y3647620D01*
X17685714Y3695239D01*
X17733333Y3742858D01*
X17780952Y3838096D01*
X17780952Y3933334D01*
X17733333Y4028572D01*
X17685714Y4076191D01*
X17590476Y4123810D01*
X17400000Y4171429D01*
X17304761Y4219048D01*
X17257142Y4266667D01*
X17209523Y4361905D01*
X17209523Y4457143D01*
X17257142Y4552381D01*
X17304761Y4600000D01*
X17400000Y4647620D01*
X17638095Y4647620D01*
X17780952Y4600000D01*
X34450000Y7397620D02*
X34640476Y7397620D01*
X34735714Y7350000D01*
X34830952Y7254762D01*
X34878571Y7064286D01*
X34878571Y6730953D01*
X34830952Y6540477D01*
X34735714Y6445239D01*
X34640476Y6397620D01*
X34450000Y6397620D01*
X34354761Y6445239D01*
X34259523Y6540477D01*
X34211904Y6730953D01*
X34211904Y7064286D01*
X34259523Y7254762D01*
X34354761Y7350000D01*
X34450000Y7397620D01*
X35307142Y7397620D02*
X35307142Y6588096D01*
X35354761Y6492858D01*
X35402380Y6445239D01*
X35497619Y6397620D01*
X35688095Y6397620D01*
X35783333Y6445239D01*
X35830952Y6492858D01*
X35878571Y6588096D01*
X35878571Y7397620D01*
X36211904Y7397620D02*
X36783333Y7397620D01*
X36497619Y6397620D02*
X36497619Y7397620D01*
X43211904Y8371429D02*
X43354761Y8323810D01*
X43402380Y8276191D01*
X43450000Y8180953D01*
X43450000Y8038096D01*
X43402380Y7942858D01*
X43354761Y7895239D01*
X43259523Y7847620D01*
X42878571Y7847620D01*
X42878571Y8847620D01*
X43211904Y8847620D01*
X43307142Y8800000D01*
X43354761Y8752381D01*
X43402380Y8657143D01*
X43402380Y8561905D01*
X43354761Y8466667D01*
X43307142Y8419048D01*
X43211904Y8371429D01*
X42878571Y8371429D01*
X43830952Y8133334D02*
X44307142Y8133334D01*
X43735714Y7847620D02*
X44069047Y8847620D01*
X44402380Y7847620D01*
X44592857Y8847620D02*
X45164285Y8847620D01*
X44878571Y7847620D02*
X44878571Y8847620D01*
X8916666Y21847620D02*
X8916666Y22847620D01*
X8916666Y22371429D02*
X9488095Y22371429D01*
X9488095Y21847620D02*
X9488095Y22847620D01*
X10392857Y22514286D02*
X10392857Y21847620D01*
X9964285Y22514286D02*
X9964285Y21990477D01*
X10011904Y21895239D01*
X10107142Y21847620D01*
X10250000Y21847620D01*
X10345238Y21895239D01*
X10392857Y21942858D01*
X10869047Y21847620D02*
X10869047Y22514286D01*
X10869047Y22419048D02*
X10916666Y22466667D01*
X11011904Y22514286D01*
X11154761Y22514286D01*
X11250000Y22466667D01*
X11297619Y22371429D01*
X11297619Y21847620D01*
X11297619Y22371429D02*
X11345238Y22466667D01*
X11440476Y22514286D01*
X11583333Y22514286D01*
X11678571Y22466667D01*
X11726190Y22371429D01*
X11726190Y21847620D01*
X12202380Y21847620D02*
X12202380Y22847620D01*
X12202380Y22466667D02*
X12297619Y22514286D01*
X12488095Y22514286D01*
X12583333Y22466667D01*
X12630952Y22419048D01*
X12678571Y22323810D01*
X12678571Y22038096D01*
X12630952Y21942858D01*
X12583333Y21895239D01*
X12488095Y21847620D01*
X12297619Y21847620D01*
X12202380Y21895239D01*
X13535714Y22514286D02*
X13535714Y21847620D01*
X13107142Y22514286D02*
X13107142Y21990477D01*
X13154761Y21895239D01*
X13250000Y21847620D01*
X13392857Y21847620D01*
X13488095Y21895239D01*
X13535714Y21942858D01*
X14440476Y21895239D02*
X14345238Y21847620D01*
X14154761Y21847620D01*
X14059523Y21895239D01*
X14011904Y21942858D01*
X13964285Y22038096D01*
X13964285Y22323810D01*
X14011904Y22419048D01*
X14059523Y22466667D01*
X14154761Y22514286D01*
X14345238Y22514286D01*
X14440476Y22466667D01*
X14869047Y21847620D02*
X14869047Y22847620D01*
X14964285Y22228572D02*
X15250000Y21847620D01*
X15250000Y22514286D02*
X14869047Y22133334D01*
X16059523Y21895239D02*
X15964285Y21847620D01*
X15773809Y21847620D01*
X15678571Y21895239D01*
X15630952Y21990477D01*
X15630952Y22371429D01*
X15678571Y22466667D01*
X15773809Y22514286D01*
X15964285Y22514286D01*
X16059523Y22466667D01*
X16107142Y22371429D01*
X16107142Y22276191D01*
X15630952Y22180953D01*
X16535714Y21847620D02*
X16535714Y22514286D01*
X16535714Y22323810D02*
X16583333Y22419048D01*
X16630952Y22466667D01*
X16726190Y22514286D01*
X16821428Y22514286D01*
X18345238Y21847620D02*
X18345238Y22371429D01*
X18297619Y22466667D01*
X18202380Y22514286D01*
X18011904Y22514286D01*
X17916666Y22466667D01*
X18345238Y21895239D02*
X18250000Y21847620D01*
X18011904Y21847620D01*
X17916666Y21895239D01*
X17869047Y21990477D01*
X17869047Y22085715D01*
X17916666Y22180953D01*
X18011904Y22228572D01*
X18250000Y22228572D01*
X18345238Y22276191D01*
X18821428Y21847620D02*
X18821428Y22514286D01*
X18821428Y22419048D02*
X18869047Y22466667D01*
X18964285Y22514286D01*
X19107142Y22514286D01*
X19202380Y22466667D01*
X19250000Y22371429D01*
X19250000Y21847620D01*
X19250000Y22371429D02*
X19297619Y22466667D01*
X19392857Y22514286D01*
X19535714Y22514286D01*
X19630952Y22466667D01*
X19678571Y22371429D01*
X19678571Y21847620D01*
X20154761Y22514286D02*
X20154761Y21514286D01*
X20154761Y22466667D02*
X20250000Y22514286D01*
X20440476Y22514286D01*
X20535714Y22466667D01*
X20583333Y22419048D01*
X20630952Y22323810D01*
X20630952Y22038096D01*
X20583333Y21942858D01*
X20535714Y21895239D01*
X20440476Y21847620D01*
X20250000Y21847620D01*
X20154761Y21895239D01*
D11*
%TO.C,R12*%
X22140000Y7441233D02*
X22140000Y7783767D01*
X23160000Y7441233D02*
X23160000Y7783767D01*
%TO.C,R11*%
X24240000Y10841233D02*
X24240000Y11183767D01*
X25260000Y10841233D02*
X25260000Y11183767D01*
%TO.C,R10*%
X25840000Y7441233D02*
X25840000Y7783767D01*
X26860000Y7441233D02*
X26860000Y7783767D01*
%TO.C,R9*%
X27940000Y7428733D02*
X27940000Y7771267D01*
X28960000Y7428733D02*
X28960000Y7771267D01*
%TO.C,R8*%
X31828733Y22460000D02*
X32171267Y22460000D01*
X31828733Y21440000D02*
X32171267Y21440000D01*
%TO.C,R7*%
X33360000Y8058767D02*
X33360000Y7716233D01*
X32340000Y8058767D02*
X32340000Y7716233D01*
%TO.C,R6*%
X35521267Y8090000D02*
X35178733Y8090000D01*
X35521267Y9110000D02*
X35178733Y9110000D01*
%TO.C,R5*%
X32340000Y18178733D02*
X32340000Y18521267D01*
X33360000Y18178733D02*
X33360000Y18521267D01*
%TO.C,R4*%
X27708767Y18600000D02*
X27366233Y18600000D01*
X27708767Y19620000D02*
X27366233Y19620000D01*
%TO.C,R3*%
X27708767Y20160000D02*
X27366233Y20160000D01*
X27708767Y21180000D02*
X27366233Y21180000D01*
%TO.C,R2*%
X45428733Y14410000D02*
X45771267Y14410000D01*
X45428733Y13390000D02*
X45771267Y13390000D01*
%TO.C,R1*%
X41878733Y14410000D02*
X42221267Y14410000D01*
X41878733Y13390000D02*
X42221267Y13390000D01*
%TO.C,D1*%
X42100000Y10200000D02*
X40400000Y10200000D01*
X40400000Y10200000D02*
X40400000Y7050000D01*
X42100000Y10200000D02*
X42100000Y7050000D01*
%TO.C,C11*%
X30640000Y18178733D02*
X30640000Y18521267D01*
X31660000Y18178733D02*
X31660000Y18521267D01*
%TO.C,C10*%
X22140000Y10828733D02*
X22140000Y11171267D01*
X23160000Y10828733D02*
X23160000Y11171267D01*
%TO.C,C9*%
X24240000Y7428733D02*
X24240000Y7771267D01*
X25260000Y7428733D02*
X25260000Y7771267D01*
%TO.C,C8*%
X25840000Y10816233D02*
X25840000Y11158767D01*
X26860000Y10816233D02*
X26860000Y11158767D01*
%TO.C,C7*%
X27940000Y10828733D02*
X27940000Y11171267D01*
X28960000Y10828733D02*
X28960000Y11171267D01*
%TO.C,C6*%
X32140000Y11588748D02*
X32140000Y12111252D01*
X33560000Y11588748D02*
X33560000Y12111252D01*
%TO.C,C5*%
X42540000Y19678733D02*
X42540000Y20021267D01*
X43560000Y19678733D02*
X43560000Y20021267D01*
%TO.C,C4*%
X24271267Y18600000D02*
X23928733Y18600000D01*
X24271267Y19620000D02*
X23928733Y19620000D01*
%TO.C,C3*%
X24271267Y20160000D02*
X23928733Y20160000D01*
X24271267Y21180000D02*
X23928733Y21180000D01*
%TO.C,C2*%
X36160000Y13821267D02*
X36160000Y13478733D01*
X35140000Y13821267D02*
X35140000Y13478733D01*
%TO.C,C1*%
X41988748Y12410000D02*
X42511252Y12410000D01*
X41988748Y10990000D02*
X42511252Y10990000D01*
%TO.C,U1*%
X38050000Y20910000D02*
X36100000Y20910000D01*
X38050000Y20910000D02*
X40000000Y20910000D01*
X38050000Y15790000D02*
X36100000Y15790000D01*
X38050000Y15790000D02*
X41500000Y15790000D01*
%TO.C,R12*%
D10*
X17352380Y7457143D02*
X16876190Y7123810D01*
X17352380Y6885715D02*
X16352380Y6885715D01*
X16352380Y7266667D01*
X16400000Y7361905D01*
X16447619Y7409524D01*
X16542857Y7457143D01*
X16685714Y7457143D01*
X16780952Y7409524D01*
X16828571Y7361905D01*
X16876190Y7266667D01*
X16876190Y6885715D01*
X17352380Y8409524D02*
X17352380Y7838096D01*
X17352380Y8123810D02*
X16352380Y8123810D01*
X16495238Y8028572D01*
X16590476Y7933334D01*
X16638095Y7838096D01*
X16447619Y8790477D02*
X16400000Y8838096D01*
X16352380Y8933334D01*
X16352380Y9171429D01*
X16400000Y9266667D01*
X16447619Y9314286D01*
X16542857Y9361905D01*
X16638095Y9361905D01*
X16780952Y9314286D01*
X17352380Y8742858D01*
X17352380Y9361905D01*
%TO.C,R11*%
X18852380Y10757143D02*
X18376190Y10423810D01*
X18852380Y10185715D02*
X17852380Y10185715D01*
X17852380Y10566667D01*
X17900000Y10661905D01*
X17947619Y10709524D01*
X18042857Y10757143D01*
X18185714Y10757143D01*
X18280952Y10709524D01*
X18328571Y10661905D01*
X18376190Y10566667D01*
X18376190Y10185715D01*
X18852380Y11709524D02*
X18852380Y11138096D01*
X18852380Y11423810D02*
X17852380Y11423810D01*
X17995238Y11328572D01*
X18090476Y11233334D01*
X18138095Y11138096D01*
X18852380Y12661905D02*
X18852380Y12090477D01*
X18852380Y12376191D02*
X17852380Y12376191D01*
X17995238Y12280953D01*
X18090476Y12185715D01*
X18138095Y12090477D01*
%TO.C,R10*%
X20302380Y7457143D02*
X19826190Y7123810D01*
X20302380Y6885715D02*
X19302380Y6885715D01*
X19302380Y7266667D01*
X19350000Y7361905D01*
X19397619Y7409524D01*
X19492857Y7457143D01*
X19635714Y7457143D01*
X19730952Y7409524D01*
X19778571Y7361905D01*
X19826190Y7266667D01*
X19826190Y6885715D01*
X20302380Y8409524D02*
X20302380Y7838096D01*
X20302380Y8123810D02*
X19302380Y8123810D01*
X19445238Y8028572D01*
X19540476Y7933334D01*
X19588095Y7838096D01*
X19302380Y9028572D02*
X19302380Y9123810D01*
X19350000Y9219048D01*
X19397619Y9266667D01*
X19492857Y9314286D01*
X19683333Y9361905D01*
X19921428Y9361905D01*
X20111904Y9314286D01*
X20207142Y9266667D01*
X20254761Y9219048D01*
X20302380Y9123810D01*
X20302380Y9028572D01*
X20254761Y8933334D01*
X20207142Y8885715D01*
X20111904Y8838096D01*
X19921428Y8790477D01*
X19683333Y8790477D01*
X19492857Y8838096D01*
X19397619Y8885715D01*
X19350000Y8933334D01*
X19302380Y9028572D01*
%TO.C,R9*%
X21772380Y7433334D02*
X21296190Y7100000D01*
X21772380Y6861905D02*
X20772380Y6861905D01*
X20772380Y7242858D01*
X20820000Y7338096D01*
X20867619Y7385715D01*
X20962857Y7433334D01*
X21105714Y7433334D01*
X21200952Y7385715D01*
X21248571Y7338096D01*
X21296190Y7242858D01*
X21296190Y6861905D01*
X21772380Y7909524D02*
X21772380Y8100000D01*
X21724761Y8195239D01*
X21677142Y8242858D01*
X21534285Y8338096D01*
X21343809Y8385715D01*
X20962857Y8385715D01*
X20867619Y8338096D01*
X20820000Y8290477D01*
X20772380Y8195239D01*
X20772380Y8004762D01*
X20820000Y7909524D01*
X20867619Y7861905D01*
X20962857Y7814286D01*
X21200952Y7814286D01*
X21296190Y7861905D01*
X21343809Y7909524D01*
X21391428Y8004762D01*
X21391428Y8195239D01*
X21343809Y8290477D01*
X21296190Y8338096D01*
X21200952Y8385715D01*
%TO.C,R8*%
X31833333Y20097620D02*
X31500000Y20573810D01*
X31261904Y20097620D02*
X31261904Y21097620D01*
X31642857Y21097620D01*
X31738095Y21050000D01*
X31785714Y21002381D01*
X31833333Y20907143D01*
X31833333Y20764286D01*
X31785714Y20669048D01*
X31738095Y20621429D01*
X31642857Y20573810D01*
X31261904Y20573810D01*
X32404761Y20669048D02*
X32309523Y20716667D01*
X32261904Y20764286D01*
X32214285Y20859524D01*
X32214285Y20907143D01*
X32261904Y21002381D01*
X32309523Y21050000D01*
X32404761Y21097620D01*
X32595238Y21097620D01*
X32690476Y21050000D01*
X32738095Y21002381D01*
X32785714Y20907143D01*
X32785714Y20859524D01*
X32738095Y20764286D01*
X32690476Y20716667D01*
X32595238Y20669048D01*
X32404761Y20669048D01*
X32309523Y20621429D01*
X32261904Y20573810D01*
X32214285Y20478572D01*
X32214285Y20288096D01*
X32261904Y20192858D01*
X32309523Y20145239D01*
X32404761Y20097620D01*
X32595238Y20097620D01*
X32690476Y20145239D01*
X32738095Y20192858D01*
X32785714Y20288096D01*
X32785714Y20478572D01*
X32738095Y20573810D01*
X32690476Y20621429D01*
X32595238Y20669048D01*
%TO.C,R7*%
X31752380Y7720834D02*
X31276190Y7387500D01*
X31752380Y7149405D02*
X30752380Y7149405D01*
X30752380Y7530358D01*
X30800000Y7625596D01*
X30847619Y7673215D01*
X30942857Y7720834D01*
X31085714Y7720834D01*
X31180952Y7673215D01*
X31228571Y7625596D01*
X31276190Y7530358D01*
X31276190Y7149405D01*
X30752380Y8054167D02*
X30752380Y8720834D01*
X31752380Y8292262D01*
%TO.C,R6*%
X35183333Y9747620D02*
X34850000Y10223810D01*
X34611904Y9747620D02*
X34611904Y10747620D01*
X34992857Y10747620D01*
X35088095Y10700000D01*
X35135714Y10652381D01*
X35183333Y10557143D01*
X35183333Y10414286D01*
X35135714Y10319048D01*
X35088095Y10271429D01*
X34992857Y10223810D01*
X34611904Y10223810D01*
X36040476Y10747620D02*
X35850000Y10747620D01*
X35754761Y10700000D01*
X35707142Y10652381D01*
X35611904Y10509524D01*
X35564285Y10319048D01*
X35564285Y9938096D01*
X35611904Y9842858D01*
X35659523Y9795239D01*
X35754761Y9747620D01*
X35945238Y9747620D01*
X36040476Y9795239D01*
X36088095Y9842858D01*
X36135714Y9938096D01*
X36135714Y10176191D01*
X36088095Y10271429D01*
X36040476Y10319048D01*
X35945238Y10366667D01*
X35754761Y10366667D01*
X35659523Y10319048D01*
X35611904Y10271429D01*
X35564285Y10176191D01*
%TO.C,R5*%
X33302380Y14633334D02*
X32826190Y14300000D01*
X33302380Y14061905D02*
X32302380Y14061905D01*
X32302380Y14442858D01*
X32350000Y14538096D01*
X32397619Y14585715D01*
X32492857Y14633334D01*
X32635714Y14633334D01*
X32730952Y14585715D01*
X32778571Y14538096D01*
X32826190Y14442858D01*
X32826190Y14061905D01*
X32302380Y15538096D02*
X32302380Y15061905D01*
X32778571Y15014286D01*
X32730952Y15061905D01*
X32683333Y15157143D01*
X32683333Y15395239D01*
X32730952Y15490477D01*
X32778571Y15538096D01*
X32873809Y15585715D01*
X33111904Y15585715D01*
X33207142Y15538096D01*
X33254761Y15490477D01*
X33302380Y15395239D01*
X33302380Y15157143D01*
X33254761Y15061905D01*
X33207142Y15014286D01*
%TO.C,R4*%
X27370833Y15627620D02*
X27037500Y16103810D01*
X26799404Y15627620D02*
X26799404Y16627620D01*
X27180357Y16627620D01*
X27275595Y16580000D01*
X27323214Y16532381D01*
X27370833Y16437143D01*
X27370833Y16294286D01*
X27323214Y16199048D01*
X27275595Y16151429D01*
X27180357Y16103810D01*
X26799404Y16103810D01*
X28227976Y16294286D02*
X28227976Y15627620D01*
X27989880Y16675239D02*
X27751785Y15960953D01*
X28370833Y15960953D01*
%TO.C,R3*%
X27370833Y17187620D02*
X27037500Y17663810D01*
X26799404Y17187620D02*
X26799404Y18187620D01*
X27180357Y18187620D01*
X27275595Y18140000D01*
X27323214Y18092381D01*
X27370833Y17997143D01*
X27370833Y17854286D01*
X27323214Y17759048D01*
X27275595Y17711429D01*
X27180357Y17663810D01*
X26799404Y17663810D01*
X27704166Y18187620D02*
X28323214Y18187620D01*
X27989880Y17806667D01*
X28132738Y17806667D01*
X28227976Y17759048D01*
X28275595Y17711429D01*
X28323214Y17616191D01*
X28323214Y17378096D01*
X28275595Y17282858D01*
X28227976Y17235239D01*
X28132738Y17187620D01*
X27847023Y17187620D01*
X27751785Y17235239D01*
X27704166Y17282858D01*
%TO.C,R2*%
X46233333Y14877620D02*
X45900000Y15353810D01*
X45661904Y14877620D02*
X45661904Y15877620D01*
X46042857Y15877620D01*
X46138095Y15830000D01*
X46185714Y15782381D01*
X46233333Y15687143D01*
X46233333Y15544286D01*
X46185714Y15449048D01*
X46138095Y15401429D01*
X46042857Y15353810D01*
X45661904Y15353810D01*
X46614285Y15782381D02*
X46661904Y15830000D01*
X46757142Y15877620D01*
X46995238Y15877620D01*
X47090476Y15830000D01*
X47138095Y15782381D01*
X47185714Y15687143D01*
X47185714Y15591905D01*
X47138095Y15449048D01*
X46566666Y14877620D01*
X47185714Y14877620D01*
%TO.C,R1*%
X42733333Y14897620D02*
X42400000Y15373810D01*
X42161904Y14897620D02*
X42161904Y15897620D01*
X42542857Y15897620D01*
X42638095Y15850000D01*
X42685714Y15802381D01*
X42733333Y15707143D01*
X42733333Y15564286D01*
X42685714Y15469048D01*
X42638095Y15421429D01*
X42542857Y15373810D01*
X42161904Y15373810D01*
X43685714Y14897620D02*
X43114285Y14897620D01*
X43400000Y14897620D02*
X43400000Y15897620D01*
X43304761Y15754762D01*
X43209523Y15659524D01*
X43114285Y15611905D01*
%TO.C,D1*%
X40002380Y7561905D02*
X39002380Y7561905D01*
X39002380Y7800000D01*
X39050000Y7942858D01*
X39145238Y8038096D01*
X39240476Y8085715D01*
X39430952Y8133334D01*
X39573809Y8133334D01*
X39764285Y8085715D01*
X39859523Y8038096D01*
X39954761Y7942858D01*
X40002380Y7800000D01*
X40002380Y7561905D01*
X40002380Y9085715D02*
X40002380Y8514286D01*
X40002380Y8800000D02*
X39002380Y8800000D01*
X39145238Y8704762D01*
X39240476Y8609524D01*
X39288095Y8514286D01*
%TO.C,C11*%
X31507142Y14707143D02*
X31554761Y14659524D01*
X31602380Y14516667D01*
X31602380Y14421429D01*
X31554761Y14278572D01*
X31459523Y14183334D01*
X31364285Y14135715D01*
X31173809Y14088096D01*
X31030952Y14088096D01*
X30840476Y14135715D01*
X30745238Y14183334D01*
X30650000Y14278572D01*
X30602380Y14421429D01*
X30602380Y14516667D01*
X30650000Y14659524D01*
X30697619Y14707143D01*
X31602380Y15659524D02*
X31602380Y15088096D01*
X31602380Y15373810D02*
X30602380Y15373810D01*
X30745238Y15278572D01*
X30840476Y15183334D01*
X30888095Y15088096D01*
X31602380Y16611905D02*
X31602380Y16040477D01*
X31602380Y16326191D02*
X30602380Y16326191D01*
X30745238Y16230953D01*
X30840476Y16135715D01*
X30888095Y16040477D01*
%TO.C,C10*%
X17257142Y10757143D02*
X17304761Y10709524D01*
X17352380Y10566667D01*
X17352380Y10471429D01*
X17304761Y10328572D01*
X17209523Y10233334D01*
X17114285Y10185715D01*
X16923809Y10138096D01*
X16780952Y10138096D01*
X16590476Y10185715D01*
X16495238Y10233334D01*
X16400000Y10328572D01*
X16352380Y10471429D01*
X16352380Y10566667D01*
X16400000Y10709524D01*
X16447619Y10757143D01*
X17352380Y11709524D02*
X17352380Y11138096D01*
X17352380Y11423810D02*
X16352380Y11423810D01*
X16495238Y11328572D01*
X16590476Y11233334D01*
X16638095Y11138096D01*
X16352380Y12328572D02*
X16352380Y12423810D01*
X16400000Y12519048D01*
X16447619Y12566667D01*
X16542857Y12614286D01*
X16733333Y12661905D01*
X16971428Y12661905D01*
X17161904Y12614286D01*
X17257142Y12566667D01*
X17304761Y12519048D01*
X17352380Y12423810D01*
X17352380Y12328572D01*
X17304761Y12233334D01*
X17257142Y12185715D01*
X17161904Y12138096D01*
X16971428Y12090477D01*
X16733333Y12090477D01*
X16542857Y12138096D01*
X16447619Y12185715D01*
X16400000Y12233334D01*
X16352380Y12328572D01*
%TO.C,C9*%
X18757142Y7483334D02*
X18804761Y7435715D01*
X18852380Y7292858D01*
X18852380Y7197620D01*
X18804761Y7054762D01*
X18709523Y6959524D01*
X18614285Y6911905D01*
X18423809Y6864286D01*
X18280952Y6864286D01*
X18090476Y6911905D01*
X17995238Y6959524D01*
X17900000Y7054762D01*
X17852380Y7197620D01*
X17852380Y7292858D01*
X17900000Y7435715D01*
X17947619Y7483334D01*
X18852380Y7959524D02*
X18852380Y8150000D01*
X18804761Y8245239D01*
X18757142Y8292858D01*
X18614285Y8388096D01*
X18423809Y8435715D01*
X18042857Y8435715D01*
X17947619Y8388096D01*
X17900000Y8340477D01*
X17852380Y8245239D01*
X17852380Y8054762D01*
X17900000Y7959524D01*
X17947619Y7911905D01*
X18042857Y7864286D01*
X18280952Y7864286D01*
X18376190Y7911905D01*
X18423809Y7959524D01*
X18471428Y8054762D01*
X18471428Y8245239D01*
X18423809Y8340477D01*
X18376190Y8388096D01*
X18280952Y8435715D01*
%TO.C,C8*%
X20207142Y10833334D02*
X20254761Y10785715D01*
X20302380Y10642858D01*
X20302380Y10547620D01*
X20254761Y10404762D01*
X20159523Y10309524D01*
X20064285Y10261905D01*
X19873809Y10214286D01*
X19730952Y10214286D01*
X19540476Y10261905D01*
X19445238Y10309524D01*
X19350000Y10404762D01*
X19302380Y10547620D01*
X19302380Y10642858D01*
X19350000Y10785715D01*
X19397619Y10833334D01*
X19730952Y11404762D02*
X19683333Y11309524D01*
X19635714Y11261905D01*
X19540476Y11214286D01*
X19492857Y11214286D01*
X19397619Y11261905D01*
X19350000Y11309524D01*
X19302380Y11404762D01*
X19302380Y11595239D01*
X19350000Y11690477D01*
X19397619Y11738096D01*
X19492857Y11785715D01*
X19540476Y11785715D01*
X19635714Y11738096D01*
X19683333Y11690477D01*
X19730952Y11595239D01*
X19730952Y11404762D01*
X19778571Y11309524D01*
X19826190Y11261905D01*
X19921428Y11214286D01*
X20111904Y11214286D01*
X20207142Y11261905D01*
X20254761Y11309524D01*
X20302380Y11404762D01*
X20302380Y11595239D01*
X20254761Y11690477D01*
X20207142Y11738096D01*
X20111904Y11785715D01*
X19921428Y11785715D01*
X19826190Y11738096D01*
X19778571Y11690477D01*
X19730952Y11595239D01*
%TO.C,C7*%
X21677142Y10833334D02*
X21724761Y10785715D01*
X21772380Y10642858D01*
X21772380Y10547620D01*
X21724761Y10404762D01*
X21629523Y10309524D01*
X21534285Y10261905D01*
X21343809Y10214286D01*
X21200952Y10214286D01*
X21010476Y10261905D01*
X20915238Y10309524D01*
X20820000Y10404762D01*
X20772380Y10547620D01*
X20772380Y10642858D01*
X20820000Y10785715D01*
X20867619Y10833334D01*
X20772380Y11166667D02*
X20772380Y11833334D01*
X21772380Y11404762D01*
%TO.C,C6*%
X31557142Y11683334D02*
X31604761Y11635715D01*
X31652380Y11492858D01*
X31652380Y11397620D01*
X31604761Y11254762D01*
X31509523Y11159524D01*
X31414285Y11111905D01*
X31223809Y11064286D01*
X31080952Y11064286D01*
X30890476Y11111905D01*
X30795238Y11159524D01*
X30700000Y11254762D01*
X30652380Y11397620D01*
X30652380Y11492858D01*
X30700000Y11635715D01*
X30747619Y11683334D01*
X30652380Y12540477D02*
X30652380Y12350000D01*
X30700000Y12254762D01*
X30747619Y12207143D01*
X30890476Y12111905D01*
X31080952Y12064286D01*
X31461904Y12064286D01*
X31557142Y12111905D01*
X31604761Y12159524D01*
X31652380Y12254762D01*
X31652380Y12445239D01*
X31604761Y12540477D01*
X31557142Y12588096D01*
X31461904Y12635715D01*
X31223809Y12635715D01*
X31128571Y12588096D01*
X31080952Y12540477D01*
X31033333Y12445239D01*
X31033333Y12254762D01*
X31080952Y12159524D01*
X31128571Y12111905D01*
X31223809Y12064286D01*
%TO.C,C5*%
X45107142Y19633334D02*
X45154761Y19585715D01*
X45202380Y19442858D01*
X45202380Y19347620D01*
X45154761Y19204762D01*
X45059523Y19109524D01*
X44964285Y19061905D01*
X44773809Y19014286D01*
X44630952Y19014286D01*
X44440476Y19061905D01*
X44345238Y19109524D01*
X44250000Y19204762D01*
X44202380Y19347620D01*
X44202380Y19442858D01*
X44250000Y19585715D01*
X44297619Y19633334D01*
X44202380Y20538096D02*
X44202380Y20061905D01*
X44678571Y20014286D01*
X44630952Y20061905D01*
X44583333Y20157143D01*
X44583333Y20395239D01*
X44630952Y20490477D01*
X44678571Y20538096D01*
X44773809Y20585715D01*
X45011904Y20585715D01*
X45107142Y20538096D01*
X45154761Y20490477D01*
X45202380Y20395239D01*
X45202380Y20157143D01*
X45154761Y20061905D01*
X45107142Y20014286D01*
%TO.C,C4*%
X23933333Y15722858D02*
X23885714Y15675239D01*
X23742857Y15627620D01*
X23647619Y15627620D01*
X23504761Y15675239D01*
X23409523Y15770477D01*
X23361904Y15865715D01*
X23314285Y16056191D01*
X23314285Y16199048D01*
X23361904Y16389524D01*
X23409523Y16484762D01*
X23504761Y16580000D01*
X23647619Y16627620D01*
X23742857Y16627620D01*
X23885714Y16580000D01*
X23933333Y16532381D01*
X24790476Y16294286D02*
X24790476Y15627620D01*
X24552380Y16675239D02*
X24314285Y15960953D01*
X24933333Y15960953D01*
%TO.C,C3*%
X23933333Y17282858D02*
X23885714Y17235239D01*
X23742857Y17187620D01*
X23647619Y17187620D01*
X23504761Y17235239D01*
X23409523Y17330477D01*
X23361904Y17425715D01*
X23314285Y17616191D01*
X23314285Y17759048D01*
X23361904Y17949524D01*
X23409523Y18044762D01*
X23504761Y18140000D01*
X23647619Y18187620D01*
X23742857Y18187620D01*
X23885714Y18140000D01*
X23933333Y18092381D01*
X24266666Y18187620D02*
X24885714Y18187620D01*
X24552380Y17806667D01*
X24695238Y17806667D01*
X24790476Y17759048D01*
X24838095Y17711429D01*
X24885714Y17616191D01*
X24885714Y17378096D01*
X24838095Y17282858D01*
X24790476Y17235239D01*
X24695238Y17187620D01*
X24409523Y17187620D01*
X24314285Y17235239D01*
X24266666Y17282858D01*
%TO.C,C2*%
X37437142Y13483334D02*
X37484761Y13435715D01*
X37532380Y13292858D01*
X37532380Y13197620D01*
X37484761Y13054762D01*
X37389523Y12959524D01*
X37294285Y12911905D01*
X37103809Y12864286D01*
X36960952Y12864286D01*
X36770476Y12911905D01*
X36675238Y12959524D01*
X36580000Y13054762D01*
X36532380Y13197620D01*
X36532380Y13292858D01*
X36580000Y13435715D01*
X36627619Y13483334D01*
X36627619Y13864286D02*
X36580000Y13911905D01*
X36532380Y14007143D01*
X36532380Y14245239D01*
X36580000Y14340477D01*
X36627619Y14388096D01*
X36722857Y14435715D01*
X36818095Y14435715D01*
X36960952Y14388096D01*
X37532380Y13816667D01*
X37532380Y14435715D01*
%TO.C,C1*%
X45183333Y11342858D02*
X45135714Y11295239D01*
X44992857Y11247620D01*
X44897619Y11247620D01*
X44754761Y11295239D01*
X44659523Y11390477D01*
X44611904Y11485715D01*
X44564285Y11676191D01*
X44564285Y11819048D01*
X44611904Y12009524D01*
X44659523Y12104762D01*
X44754761Y12200000D01*
X44897619Y12247620D01*
X44992857Y12247620D01*
X45135714Y12200000D01*
X45183333Y12152381D01*
X46135714Y11247620D02*
X45564285Y11247620D01*
X45850000Y11247620D02*
X45850000Y12247620D01*
X45754761Y12104762D01*
X45659523Y12009524D01*
X45564285Y11961905D01*
%TO.C,J15*%
X18940476Y1847620D02*
X18940476Y1133334D01*
X18892857Y990477D01*
X18797619Y895239D01*
X18654761Y847620D01*
X18559523Y847620D01*
X19940476Y847620D02*
X19369047Y847620D01*
X19654761Y847620D02*
X19654761Y1847620D01*
X19559523Y1704762D01*
X19464285Y1609524D01*
X19369047Y1561905D01*
X20845238Y1847620D02*
X20369047Y1847620D01*
X20321428Y1371429D01*
X20369047Y1419048D01*
X20464285Y1466667D01*
X20702380Y1466667D01*
X20797619Y1419048D01*
X20845238Y1371429D01*
X20892857Y1276191D01*
X20892857Y1038096D01*
X20845238Y942858D01*
X20797619Y895239D01*
X20702380Y847620D01*
X20464285Y847620D01*
X20369047Y895239D01*
X20321428Y942858D01*
%TO.C,J14*%
X21840476Y1847620D02*
X21840476Y1133334D01*
X21792857Y990477D01*
X21697619Y895239D01*
X21554761Y847620D01*
X21459523Y847620D01*
X22840476Y847620D02*
X22269047Y847620D01*
X22554761Y847620D02*
X22554761Y1847620D01*
X22459523Y1704762D01*
X22364285Y1609524D01*
X22269047Y1561905D01*
X23697619Y1514286D02*
X23697619Y847620D01*
X23459523Y1895239D02*
X23221428Y1180953D01*
X23840476Y1180953D01*
%TO.C,J13*%
X24740476Y1847620D02*
X24740476Y1133334D01*
X24692857Y990477D01*
X24597619Y895239D01*
X24454761Y847620D01*
X24359523Y847620D01*
X25740476Y847620D02*
X25169047Y847620D01*
X25454761Y847620D02*
X25454761Y1847620D01*
X25359523Y1704762D01*
X25264285Y1609524D01*
X25169047Y1561905D01*
X26073809Y1847620D02*
X26692857Y1847620D01*
X26359523Y1466667D01*
X26502380Y1466667D01*
X26597619Y1419048D01*
X26645238Y1371429D01*
X26692857Y1276191D01*
X26692857Y1038096D01*
X26645238Y942858D01*
X26597619Y895239D01*
X26502380Y847620D01*
X26216666Y847620D01*
X26121428Y895239D01*
X26073809Y942858D01*
%TO.C,J12*%
X27640476Y1847620D02*
X27640476Y1133334D01*
X27592857Y990477D01*
X27497619Y895239D01*
X27354761Y847620D01*
X27259523Y847620D01*
X28640476Y847620D02*
X28069047Y847620D01*
X28354761Y847620D02*
X28354761Y1847620D01*
X28259523Y1704762D01*
X28164285Y1609524D01*
X28069047Y1561905D01*
X29021428Y1752381D02*
X29069047Y1800000D01*
X29164285Y1847620D01*
X29402380Y1847620D01*
X29497619Y1800000D01*
X29545238Y1752381D01*
X29592857Y1657143D01*
X29592857Y1561905D01*
X29545238Y1419048D01*
X28973809Y847620D01*
X29592857Y847620D01*
%TO.C,J11*%
X58702380Y6290477D02*
X59416666Y6290477D01*
X59559523Y6242858D01*
X59654761Y6147620D01*
X59702380Y6004762D01*
X59702380Y5909524D01*
X59702380Y7290477D02*
X59702380Y6719048D01*
X59702380Y7004762D02*
X58702380Y7004762D01*
X58845238Y6909524D01*
X58940476Y6814286D01*
X58988095Y6719048D01*
X59702380Y8242858D02*
X59702380Y7671429D01*
X59702380Y7957143D02*
X58702380Y7957143D01*
X58845238Y7861905D01*
X58940476Y7766667D01*
X58988095Y7671429D01*
%TO.C,J10*%
X4302380Y6190477D02*
X5016666Y6190477D01*
X5159523Y6142858D01*
X5254761Y6047620D01*
X5302380Y5904762D01*
X5302380Y5809524D01*
X5302380Y7190477D02*
X5302380Y6619048D01*
X5302380Y6904762D02*
X4302380Y6904762D01*
X4445238Y6809524D01*
X4540476Y6714286D01*
X4588095Y6619048D01*
X4302380Y7809524D02*
X4302380Y7904762D01*
X4350000Y8000000D01*
X4397619Y8047620D01*
X4492857Y8095239D01*
X4683333Y8142858D01*
X4921428Y8142858D01*
X5111904Y8095239D01*
X5207142Y8047620D01*
X5254761Y8000000D01*
X5302380Y7904762D01*
X5302380Y7809524D01*
X5254761Y7714286D01*
X5207142Y7666667D01*
X5111904Y7619048D01*
X4921428Y7571429D01*
X4683333Y7571429D01*
X4492857Y7619048D01*
X4397619Y7666667D01*
X4350000Y7714286D01*
X4302380Y7809524D01*
%TO.C,J9*%
X58702380Y22366667D02*
X59416666Y22366667D01*
X59559523Y22319048D01*
X59654761Y22223810D01*
X59702380Y22080953D01*
X59702380Y21985715D01*
X59702380Y22890477D02*
X59702380Y23080953D01*
X59654761Y23176191D01*
X59607142Y23223810D01*
X59464285Y23319048D01*
X59273809Y23366667D01*
X58892857Y23366667D01*
X58797619Y23319048D01*
X58750000Y23271429D01*
X58702380Y23176191D01*
X58702380Y22985715D01*
X58750000Y22890477D01*
X58797619Y22842858D01*
X58892857Y22795239D01*
X59130952Y22795239D01*
X59226190Y22842858D01*
X59273809Y22890477D01*
X59321428Y22985715D01*
X59321428Y23176191D01*
X59273809Y23271429D01*
X59226190Y23319048D01*
X59130952Y23366667D01*
%TO.C,J8*%
X4302380Y22266667D02*
X5016666Y22266667D01*
X5159523Y22219048D01*
X5254761Y22123810D01*
X5302380Y21980953D01*
X5302380Y21885715D01*
X4730952Y22885715D02*
X4683333Y22790477D01*
X4635714Y22742858D01*
X4540476Y22695239D01*
X4492857Y22695239D01*
X4397619Y22742858D01*
X4350000Y22790477D01*
X4302380Y22885715D01*
X4302380Y23076191D01*
X4350000Y23171429D01*
X4397619Y23219048D01*
X4492857Y23266667D01*
X4540476Y23266667D01*
X4635714Y23219048D01*
X4683333Y23171429D01*
X4730952Y23076191D01*
X4730952Y22885715D01*
X4778571Y22790477D01*
X4826190Y22742858D01*
X4921428Y22695239D01*
X5111904Y22695239D01*
X5207142Y22742858D01*
X5254761Y22790477D01*
X5302380Y22885715D01*
X5302380Y23076191D01*
X5254761Y23171429D01*
X5207142Y23219048D01*
X5111904Y23266667D01*
X4921428Y23266667D01*
X4826190Y23219048D01*
X4778571Y23171429D01*
X4730952Y23076191D01*
%TO.C,J7*%
X35416666Y1847620D02*
X35416666Y1133334D01*
X35369047Y990477D01*
X35273809Y895239D01*
X35130952Y847620D01*
X35035714Y847620D01*
X35797619Y1847620D02*
X36464285Y1847620D01*
X36035714Y847620D01*
%TO.C,J6*%
X32416666Y1847620D02*
X32416666Y1133334D01*
X32369047Y990477D01*
X32273809Y895239D01*
X32130952Y847620D01*
X32035714Y847620D01*
X33321428Y1847620D02*
X33130952Y1847620D01*
X33035714Y1800000D01*
X32988095Y1752381D01*
X32892857Y1609524D01*
X32845238Y1419048D01*
X32845238Y1038096D01*
X32892857Y942858D01*
X32940476Y895239D01*
X33035714Y847620D01*
X33226190Y847620D01*
X33321428Y895239D01*
X33369047Y942858D01*
X33416666Y1038096D01*
X33416666Y1276191D01*
X33369047Y1371429D01*
X33321428Y1419048D01*
X33226190Y1466667D01*
X33035714Y1466667D01*
X32940476Y1419048D01*
X32892857Y1371429D01*
X32845238Y1276191D01*
%TO.C,J5*%
X2762380Y20066667D02*
X3476666Y20066667D01*
X3619523Y20019048D01*
X3714761Y19923810D01*
X3762380Y19780953D01*
X3762380Y19685715D01*
X2762380Y21019048D02*
X2762380Y20542858D01*
X3238571Y20495239D01*
X3190952Y20542858D01*
X3143333Y20638096D01*
X3143333Y20876191D01*
X3190952Y20971429D01*
X3238571Y21019048D01*
X3333809Y21066667D01*
X3571904Y21066667D01*
X3667142Y21019048D01*
X3714761Y20971429D01*
X3762380Y20876191D01*
X3762380Y20638096D01*
X3714761Y20542858D01*
X3667142Y20495239D01*
%TO.C,J4*%
X2762380Y14266667D02*
X3476666Y14266667D01*
X3619523Y14219048D01*
X3714761Y14123810D01*
X3762380Y13980953D01*
X3762380Y13885715D01*
X3095714Y15171429D02*
X3762380Y15171429D01*
X2714761Y14933334D02*
X3429047Y14695239D01*
X3429047Y15314286D01*
%TO.C,J3*%
X2762380Y17166667D02*
X3476666Y17166667D01*
X3619523Y17119048D01*
X3714761Y17023810D01*
X3762380Y16880953D01*
X3762380Y16785715D01*
X2762380Y17547620D02*
X2762380Y18166667D01*
X3143333Y17833334D01*
X3143333Y17976191D01*
X3190952Y18071429D01*
X3238571Y18119048D01*
X3333809Y18166667D01*
X3571904Y18166667D01*
X3667142Y18119048D01*
X3714761Y18071429D01*
X3762380Y17976191D01*
X3762380Y17690477D01*
X3714761Y17595239D01*
X3667142Y17547620D01*
%TO.C,J2*%
X43816666Y1847620D02*
X43816666Y1133334D01*
X43769047Y990477D01*
X43673809Y895239D01*
X43530952Y847620D01*
X43435714Y847620D01*
X44245238Y1752381D02*
X44292857Y1800000D01*
X44388095Y1847620D01*
X44626190Y1847620D01*
X44721428Y1800000D01*
X44769047Y1752381D01*
X44816666Y1657143D01*
X44816666Y1561905D01*
X44769047Y1419048D01*
X44197619Y847620D01*
X44816666Y847620D01*
%TO.C,J1*%
X40916666Y1847620D02*
X40916666Y1133334D01*
X40869047Y990477D01*
X40773809Y895239D01*
X40630952Y847620D01*
X40535714Y847620D01*
X41916666Y847620D02*
X41345238Y847620D01*
X41630952Y847620D02*
X41630952Y1847620D01*
X41535714Y1704762D01*
X41440476Y1609524D01*
X41345238Y1561905D01*
%TO.C,U1*%
X38488095Y15497620D02*
X38488095Y14688096D01*
X38535714Y14592858D01*
X38583333Y14545239D01*
X38678571Y14497620D01*
X38869047Y14497620D01*
X38964285Y14545239D01*
X39011904Y14592858D01*
X39059523Y14688096D01*
X39059523Y15497620D01*
X40059523Y14497620D02*
X39488095Y14497620D01*
X39773809Y14497620D02*
X39773809Y15497620D01*
X39678571Y15354762D01*
X39583333Y15259524D01*
X39488095Y15211905D01*
%TO.C,H2*%
X51988095Y12347620D02*
X51988095Y13347620D01*
X51988095Y12871429D02*
X52559523Y12871429D01*
X52559523Y12347620D02*
X52559523Y13347620D01*
X52988095Y13252381D02*
X53035714Y13300000D01*
X53130952Y13347620D01*
X53369047Y13347620D01*
X53464285Y13300000D01*
X53511904Y13252381D01*
X53559523Y13157143D01*
X53559523Y13061905D01*
X53511904Y12919048D01*
X52940476Y12347620D01*
X53559523Y12347620D01*
%TO.C,H1*%
X10488095Y12247620D02*
X10488095Y13247620D01*
X10488095Y12771429D02*
X11059523Y12771429D01*
X11059523Y12247620D02*
X11059523Y13247620D01*
X12059523Y12247620D02*
X11488095Y12247620D01*
X11773809Y12247620D02*
X11773809Y13247620D01*
X11678571Y13104762D01*
X11583333Y13009524D01*
X11488095Y12961905D01*
%TD*%
M02*
